<svg xmlns="http://www.w3.org/2000/svg" width="820" height="1024.2" viewBox="0 0 820 1024.2"><rect width="820" height="1024.2" fill="#eef0f1"/><text x="410.0" y="52.0" font-family="Verdana, Arial, sans-serif" font-size="30" font-weight="bold" text-anchor="middle" fill="#111">IceHouse 8' x 14'</text><line x1="60.0" y1="66.0" x2="760.0" y2="66.0" stroke="#1a1a1a" stroke-width="0.8"/><text x="410.0" y="90.0" font-family="Verdana, Arial, sans-serif" font-size="12" font-weight="normal" text-anchor="middle" fill="#666">width fixed at 8' (96") — depth 14' (168")</text><text x="110.0" y="150.0" font-family="Verdana, Arial, sans-serif" font-size="20" font-weight="bold" text-anchor="start" fill="#111">Wall Panels</text><text x="225.2" y="168.0" font-family="Verdana, Arial, sans-serif" font-size="11" font-weight="normal" text-anchor="middle" fill="#666">(top view)</text><text x="500.0" y="150.0" font-family="Verdana, Arial, sans-serif" font-size="18" font-weight="bold" text-anchor="start" fill="#111">Ceiling/Floor Panels</text><rect x="110.0" y="215.0" width="230.4" height="403.2" fill="none" stroke="#1a1a1a" stroke-width="1.4"/><rect x="119.6" y="224.6" width="211.2" height="384.0" fill="none" stroke="#1a1a1a" stroke-width="0.8"/><line x1="138.8" y1="215.0" x2="138.8" y2="224.6" stroke="#1a1a1a" stroke-width="0.6"/><line x1="196.4" y1="215.0" x2="196.4" y2="224.6" stroke="#1a1a1a" stroke-width="0.6"/><line x1="254.0" y1="215.0" x2="254.0" y2="224.6" stroke="#1a1a1a" stroke-width="0.6"/><line x1="311.6" y1="215.0" x2="311.6" y2="224.6" stroke="#1a1a1a" stroke-width="0.6"/><line x1="138.8" y1="608.6" x2="138.8" y2="618.2" stroke="#1a1a1a" stroke-width="0.6"/><line x1="254.0" y1="608.6" x2="254.0" y2="618.2" stroke="#1a1a1a" stroke-width="0.6"/><line x1="311.6" y1="608.6" x2="311.6" y2="618.2" stroke="#1a1a1a" stroke-width="0.6"/><line x1="110.0" y1="243.8" x2="119.6" y2="243.8" stroke="#1a1a1a" stroke-width="0.6"/><line x1="110.0" y1="301.4" x2="119.6" y2="301.4" stroke="#1a1a1a" stroke-width="0.6"/><line x1="110.0" y1="359.0" x2="119.6" y2="359.0" stroke="#1a1a1a" stroke-width="0.6"/><line x1="110.0" y1="416.6" x2="119.6" y2="416.6" stroke="#1a1a1a" stroke-width="0.6"/><line x1="110.0" y1="474.2" x2="119.6" y2="474.2" stroke="#1a1a1a" stroke-width="0.6"/><line x1="110.0" y1="531.8" x2="119.6" y2="531.8" stroke="#1a1a1a" stroke-width="0.6"/><line x1="110.0" y1="589.4" x2="119.6" y2="589.4" stroke="#1a1a1a" stroke-width="0.6"/><line x1="330.8" y1="243.8" x2="340.4" y2="243.8" stroke="#1a1a1a" stroke-width="0.6"/><line x1="330.8" y1="301.4" x2="340.4" y2="301.4" stroke="#1a1a1a" stroke-width="0.6"/><line x1="330.8" y1="359.0" x2="340.4" y2="359.0" stroke="#1a1a1a" stroke-width="0.6"/><line x1="330.8" y1="416.6" x2="340.4" y2="416.6" stroke="#1a1a1a" stroke-width="0.6"/><line x1="330.8" y1="474.2" x2="340.4" y2="474.2" stroke="#1a1a1a" stroke-width="0.6"/><line x1="330.8" y1="531.8" x2="340.4" y2="531.8" stroke="#1a1a1a" stroke-width="0.6"/><line x1="330.8" y1="589.4" x2="340.4" y2="589.4" stroke="#1a1a1a" stroke-width="0.6"/><clipPath id="h1"><rect x="110.0" y="215.0" width="28.8" height="9.6"/></clipPath><g clip-path="url(#h1)"><line x1="100.4" y1="215.0" x2="110.0" y2="224.6" stroke="#cc2222" stroke-width="0.6"/><line x1="105.4" y1="215.0" x2="115.0" y2="224.6" stroke="#cc2222" stroke-width="0.6"/><line x1="110.4" y1="215.0" x2="120.0" y2="224.6" stroke="#cc2222" stroke-width="0.6"/><line x1="115.4" y1="215.0" x2="125.0" y2="224.6" stroke="#cc2222" stroke-width="0.6"/><line x1="120.4" y1="215.0" x2="130.0" y2="224.6" stroke="#cc2222" stroke-width="0.6"/><line x1="125.4" y1="215.0" x2="135.0" y2="224.6" stroke="#cc2222" stroke-width="0.6"/><line x1="130.4" y1="215.0" x2="140.0" y2="224.6" stroke="#cc2222" stroke-width="0.6"/><line x1="135.4" y1="215.0" x2="145.0" y2="224.6" stroke="#cc2222" stroke-width="0.6"/></g><rect x="110.0" y="215.0" width="28.8" height="9.6" fill="none" stroke="#cc2222" stroke-width="0.8"/><clipPath id="h2"><rect x="110.0" y="215.0" width="9.6" height="28.8"/></clipPath><g clip-path="url(#h2)"><line x1="81.2" y1="215.0" x2="110.0" y2="243.8" stroke="#cc2222" stroke-width="0.6"/><line x1="86.2" y1="215.0" x2="115.0" y2="243.8" stroke="#cc2222" stroke-width="0.6"/><line x1="91.2" y1="215.0" x2="120.0" y2="243.8" stroke="#cc2222" stroke-width="0.6"/><line x1="96.2" y1="215.0" x2="125.0" y2="243.8" stroke="#cc2222" stroke-width="0.6"/><line x1="101.2" y1="215.0" x2="130.0" y2="243.8" stroke="#cc2222" stroke-width="0.6"/><line x1="106.2" y1="215.0" x2="135.0" y2="243.8" stroke="#cc2222" stroke-width="0.6"/><line x1="111.2" y1="215.0" x2="140.0" y2="243.8" stroke="#cc2222" stroke-width="0.6"/><line x1="116.2" y1="215.0" x2="145.0" y2="243.8" stroke="#cc2222" stroke-width="0.6"/></g><rect x="110.0" y="215.0" width="9.6" height="28.8" fill="none" stroke="#cc2222" stroke-width="0.8"/><clipPath id="h3"><rect x="311.6" y="215.0" width="28.8" height="9.6"/></clipPath><g clip-path="url(#h3)"><line x1="302.0" y1="215.0" x2="311.6" y2="224.6" stroke="#cc2222" stroke-width="0.6"/><line x1="307.0" y1="215.0" x2="316.6" y2="224.6" stroke="#cc2222" stroke-width="0.6"/><line x1="312.0" y1="215.0" x2="321.6" y2="224.6" stroke="#cc2222" stroke-width="0.6"/><line x1="317.0" y1="215.0" x2="326.6" y2="224.6" stroke="#cc2222" stroke-width="0.6"/><line x1="322.0" y1="215.0" x2="331.6" y2="224.6" stroke="#cc2222" stroke-width="0.6"/><line x1="327.0" y1="215.0" x2="336.6" y2="224.6" stroke="#cc2222" stroke-width="0.6"/><line x1="332.0" y1="215.0" x2="341.6" y2="224.6" stroke="#cc2222" stroke-width="0.6"/><line x1="337.0" y1="215.0" x2="346.6" y2="224.6" stroke="#cc2222" stroke-width="0.6"/></g><rect x="311.6" y="215.0" width="28.8" height="9.6" fill="none" stroke="#cc2222" stroke-width="0.8"/><clipPath id="h4"><rect x="330.8" y="215.0" width="9.6" height="28.8"/></clipPath><g clip-path="url(#h4)"><line x1="302.0" y1="215.0" x2="330.8" y2="243.8" stroke="#cc2222" stroke-width="0.6"/><line x1="307.0" y1="215.0" x2="335.8" y2="243.8" stroke="#cc2222" stroke-width="0.6"/><line x1="312.0" y1="215.0" x2="340.8" y2="243.8" stroke="#cc2222" stroke-width="0.6"/><line x1="317.0" y1="215.0" x2="345.8" y2="243.8" stroke="#cc2222" stroke-width="0.6"/><line x1="322.0" y1="215.0" x2="350.8" y2="243.8" stroke="#cc2222" stroke-width="0.6"/><line x1="327.0" y1="215.0" x2="355.8" y2="243.8" stroke="#cc2222" stroke-width="0.6"/><line x1="332.0" y1="215.0" x2="360.8" y2="243.8" stroke="#cc2222" stroke-width="0.6"/><line x1="337.0" y1="215.0" x2="365.8" y2="243.8" stroke="#cc2222" stroke-width="0.6"/></g><rect x="330.8" y="215.0" width="9.6" height="28.8" fill="none" stroke="#cc2222" stroke-width="0.8"/><clipPath id="h5"><rect x="110.0" y="608.6" width="28.8" height="9.6"/></clipPath><g clip-path="url(#h5)"><line x1="100.4" y1="608.6" x2="110.0" y2="618.2" stroke="#cc2222" stroke-width="0.6"/><line x1="105.4" y1="608.6" x2="115.0" y2="618.2" stroke="#cc2222" stroke-width="0.6"/><line x1="110.4" y1="608.6" x2="120.0" y2="618.2" stroke="#cc2222" stroke-width="0.6"/><line x1="115.4" y1="608.6" x2="125.0" y2="618.2" stroke="#cc2222" stroke-width="0.6"/><line x1="120.4" y1="608.6" x2="130.0" y2="618.2" stroke="#cc2222" stroke-width="0.6"/><line x1="125.4" y1="608.6" x2="135.0" y2="618.2" stroke="#cc2222" stroke-width="0.6"/><line x1="130.4" y1="608.6" x2="140.0" y2="618.2" stroke="#cc2222" stroke-width="0.6"/><line x1="135.4" y1="608.6" x2="145.0" y2="618.2" stroke="#cc2222" stroke-width="0.6"/></g><rect x="110.0" y="608.6" width="28.8" height="9.6" fill="none" stroke="#cc2222" stroke-width="0.8"/><clipPath id="h6"><rect x="110.0" y="589.4" width="9.6" height="28.8"/></clipPath><g clip-path="url(#h6)"><line x1="81.2" y1="589.4" x2="110.0" y2="618.2" stroke="#cc2222" stroke-width="0.6"/><line x1="86.2" y1="589.4" x2="115.0" y2="618.2" stroke="#cc2222" stroke-width="0.6"/><line x1="91.2" y1="589.4" x2="120.0" y2="618.2" stroke="#cc2222" stroke-width="0.6"/><line x1="96.2" y1="589.4" x2="125.0" y2="618.2" stroke="#cc2222" stroke-width="0.6"/><line x1="101.2" y1="589.4" x2="130.0" y2="618.2" stroke="#cc2222" stroke-width="0.6"/><line x1="106.2" y1="589.4" x2="135.0" y2="618.2" stroke="#cc2222" stroke-width="0.6"/><line x1="111.2" y1="589.4" x2="140.0" y2="618.2" stroke="#cc2222" stroke-width="0.6"/><line x1="116.2" y1="589.4" x2="145.0" y2="618.2" stroke="#cc2222" stroke-width="0.6"/></g><rect x="110.0" y="589.4" width="9.6" height="28.8" fill="none" stroke="#cc2222" stroke-width="0.8"/><clipPath id="h7"><rect x="311.6" y="608.6" width="28.8" height="9.6"/></clipPath><g clip-path="url(#h7)"><line x1="302.0" y1="608.6" x2="311.6" y2="618.2" stroke="#cc2222" stroke-width="0.6"/><line x1="307.0" y1="608.6" x2="316.6" y2="618.2" stroke="#cc2222" stroke-width="0.6"/><line x1="312.0" y1="608.6" x2="321.6" y2="618.2" stroke="#cc2222" stroke-width="0.6"/><line x1="317.0" y1="608.6" x2="326.6" y2="618.2" stroke="#cc2222" stroke-width="0.6"/><line x1="322.0" y1="608.6" x2="331.6" y2="618.2" stroke="#cc2222" stroke-width="0.6"/><line x1="327.0" y1="608.6" x2="336.6" y2="618.2" stroke="#cc2222" stroke-width="0.6"/><line x1="332.0" y1="608.6" x2="341.6" y2="618.2" stroke="#cc2222" stroke-width="0.6"/><line x1="337.0" y1="608.6" x2="346.6" y2="618.2" stroke="#cc2222" stroke-width="0.6"/></g><rect x="311.6" y="608.6" width="28.8" height="9.6" fill="none" stroke="#cc2222" stroke-width="0.8"/><clipPath id="h8"><rect x="330.8" y="589.4" width="9.6" height="28.8"/></clipPath><g clip-path="url(#h8)"><line x1="302.0" y1="589.4" x2="330.8" y2="618.2" stroke="#cc2222" stroke-width="0.6"/><line x1="307.0" y1="589.4" x2="335.8" y2="618.2" stroke="#cc2222" stroke-width="0.6"/><line x1="312.0" y1="589.4" x2="340.8" y2="618.2" stroke="#cc2222" stroke-width="0.6"/><line x1="317.0" y1="589.4" x2="345.8" y2="618.2" stroke="#cc2222" stroke-width="0.6"/><line x1="322.0" y1="589.4" x2="350.8" y2="618.2" stroke="#cc2222" stroke-width="0.6"/><line x1="327.0" y1="589.4" x2="355.8" y2="618.2" stroke="#cc2222" stroke-width="0.6"/><line x1="332.0" y1="589.4" x2="360.8" y2="618.2" stroke="#cc2222" stroke-width="0.6"/><line x1="337.0" y1="589.4" x2="365.8" y2="618.2" stroke="#cc2222" stroke-width="0.6"/></g><rect x="330.8" y="589.4" width="9.6" height="28.8" fill="none" stroke="#cc2222" stroke-width="0.8"/><rect x="155.6" y="608.6" width="81.6" height="9.6" fill="#eef0f1" stroke="none" stroke-width="1.0"/><line x1="155.6" y1="608.6" x2="155.6" y2="618.2" stroke="#1a1a1a" stroke-width="0.9"/><line x1="237.2" y1="608.6" x2="237.2" y2="618.2" stroke="#1a1a1a" stroke-width="0.9"/><polygon points="155.6,618.2 231.3,648.8 229.0,654.3 153.4,623.8" fill="#ffffff" stroke="#1a1a1a" stroke-width="1.0"/><line x1="110.0" y1="181.0" x2="340.4" y2="181.0" stroke="#1a1a1a" stroke-width="0.8"/><line x1="110.0" y1="181.0" x2="105.4" y2="179.1" stroke="#1a1a1a" stroke-width="0.9"/><line x1="110.0" y1="181.0" x2="105.4" y2="182.9" stroke="#1a1a1a" stroke-width="0.9"/><line x1="340.4" y1="181.0" x2="345.0" y2="182.9" stroke="#1a1a1a" stroke-width="0.9"/><line x1="340.4" y1="181.0" x2="345.0" y2="179.1" stroke="#1a1a1a" stroke-width="0.9"/><line x1="110.0" y1="177.0" x2="110.0" y2="185.0" stroke="#1a1a1a" stroke-width="0.6"/><line x1="340.4" y1="177.0" x2="340.4" y2="185.0" stroke="#1a1a1a" stroke-width="0.6"/><text x="225.2" y="177.0" font-family="Verdana, Arial, sans-serif" font-size="12" font-weight="normal" text-anchor="middle" fill="#111">96"</text><line x1="110.0" y1="201.0" x2="138.8" y2="201.0" stroke="#1a1a1a" stroke-width="0.8"/><line x1="110.0" y1="201.0" x2="105.4" y2="199.1" stroke="#1a1a1a" stroke-width="0.9"/><line x1="110.0" y1="201.0" x2="105.4" y2="202.9" stroke="#1a1a1a" stroke-width="0.9"/><line x1="138.8" y1="201.0" x2="143.4" y2="202.9" stroke="#1a1a1a" stroke-width="0.9"/><line x1="138.8" y1="201.0" x2="143.4" y2="199.1" stroke="#1a1a1a" stroke-width="0.9"/><line x1="110.0" y1="197.0" x2="110.0" y2="205.0" stroke="#1a1a1a" stroke-width="0.6"/><line x1="138.8" y1="197.0" x2="138.8" y2="205.0" stroke="#1a1a1a" stroke-width="0.6"/><text x="124.4" y="197.0" font-family="Verdana, Arial, sans-serif" font-size="11" font-weight="normal" text-anchor="middle" fill="#111">12"</text><line x1="138.8" y1="201.0" x2="196.4" y2="201.0" stroke="#1a1a1a" stroke-width="0.8"/><line x1="138.8" y1="201.0" x2="134.2" y2="199.1" stroke="#1a1a1a" stroke-width="0.9"/><line x1="138.8" y1="201.0" x2="134.2" y2="202.9" stroke="#1a1a1a" stroke-width="0.9"/><line x1="196.4" y1="201.0" x2="201.0" y2="202.9" stroke="#1a1a1a" stroke-width="0.9"/><line x1="196.4" y1="201.0" x2="201.0" y2="199.1" stroke="#1a1a1a" stroke-width="0.9"/><line x1="138.8" y1="197.0" x2="138.8" y2="205.0" stroke="#1a1a1a" stroke-width="0.6"/><line x1="196.4" y1="197.0" x2="196.4" y2="205.0" stroke="#1a1a1a" stroke-width="0.6"/><text x="167.6" y="197.0" font-family="Verdana, Arial, sans-serif" font-size="11" font-weight="normal" text-anchor="middle" fill="#111">24"</text><line x1="196.4" y1="201.0" x2="254.0" y2="201.0" stroke="#1a1a1a" stroke-width="0.8"/><line x1="196.4" y1="201.0" x2="191.8" y2="199.1" stroke="#1a1a1a" stroke-width="0.9"/><line x1="196.4" y1="201.0" x2="191.8" y2="202.9" stroke="#1a1a1a" stroke-width="0.9"/><line x1="254.0" y1="201.0" x2="258.6" y2="202.9" stroke="#1a1a1a" stroke-width="0.9"/><line x1="254.0" y1="201.0" x2="258.6" y2="199.1" stroke="#1a1a1a" stroke-width="0.9"/><line x1="196.4" y1="197.0" x2="196.4" y2="205.0" stroke="#1a1a1a" stroke-width="0.6"/><line x1="254.0" y1="197.0" x2="254.0" y2="205.0" stroke="#1a1a1a" stroke-width="0.6"/><text x="225.2" y="197.0" font-family="Verdana, Arial, sans-serif" font-size="11" font-weight="normal" text-anchor="middle" fill="#111">24"</text><line x1="254.0" y1="201.0" x2="311.6" y2="201.0" stroke="#1a1a1a" stroke-width="0.8"/><line x1="254.0" y1="201.0" x2="249.4" y2="199.1" stroke="#1a1a1a" stroke-width="0.9"/><line x1="254.0" y1="201.0" x2="249.4" y2="202.9" stroke="#1a1a1a" stroke-width="0.9"/><line x1="311.6" y1="201.0" x2="316.2" y2="202.9" stroke="#1a1a1a" stroke-width="0.9"/><line x1="311.6" y1="201.0" x2="316.2" y2="199.1" stroke="#1a1a1a" stroke-width="0.9"/><line x1="254.0" y1="197.0" x2="254.0" y2="205.0" stroke="#1a1a1a" stroke-width="0.6"/><line x1="311.6" y1="197.0" x2="311.6" y2="205.0" stroke="#1a1a1a" stroke-width="0.6"/><text x="282.8" y="197.0" font-family="Verdana, Arial, sans-serif" font-size="11" font-weight="normal" text-anchor="middle" fill="#111">24"</text><line x1="311.6" y1="201.0" x2="340.4" y2="201.0" stroke="#1a1a1a" stroke-width="0.8"/><line x1="311.6" y1="201.0" x2="307.0" y2="199.1" stroke="#1a1a1a" stroke-width="0.9"/><line x1="311.6" y1="201.0" x2="307.0" y2="202.9" stroke="#1a1a1a" stroke-width="0.9"/><line x1="340.4" y1="201.0" x2="345.0" y2="202.9" stroke="#1a1a1a" stroke-width="0.9"/><line x1="340.4" y1="201.0" x2="345.0" y2="199.1" stroke="#1a1a1a" stroke-width="0.9"/><line x1="311.6" y1="197.0" x2="311.6" y2="205.0" stroke="#1a1a1a" stroke-width="0.6"/><line x1="340.4" y1="197.0" x2="340.4" y2="205.0" stroke="#1a1a1a" stroke-width="0.6"/><text x="326.0" y="197.0" font-family="Verdana, Arial, sans-serif" font-size="11" font-weight="normal" text-anchor="middle" fill="#111">12"</text><line x1="62.0" y1="215.0" x2="62.0" y2="618.2" stroke="#1a1a1a" stroke-width="0.8"/><line x1="62.0" y1="215.0" x2="63.9" y2="210.4" stroke="#1a1a1a" stroke-width="0.9"/><line x1="62.0" y1="215.0" x2="60.1" y2="210.4" stroke="#1a1a1a" stroke-width="0.9"/><line x1="62.0" y1="618.2" x2="60.1" y2="622.8" stroke="#1a1a1a" stroke-width="0.9"/><line x1="62.0" y1="618.2" x2="63.9" y2="622.8" stroke="#1a1a1a" stroke-width="0.9"/><line x1="58.0" y1="215.0" x2="66.0" y2="215.0" stroke="#1a1a1a" stroke-width="0.6"/><line x1="58.0" y1="618.2" x2="66.0" y2="618.2" stroke="#1a1a1a" stroke-width="0.6"/><text x="57.0" y="420.8" font-family="Verdana, Arial, sans-serif" font-size="12" font-weight="normal" text-anchor="end" fill="#111">168"</text><line x1="94.0" y1="215.0" x2="94.0" y2="243.8" stroke="#1a1a1a" stroke-width="0.8"/><line x1="94.0" y1="215.0" x2="95.9" y2="210.4" stroke="#1a1a1a" stroke-width="0.9"/><line x1="94.0" y1="215.0" x2="92.1" y2="210.4" stroke="#1a1a1a" stroke-width="0.9"/><line x1="94.0" y1="243.8" x2="92.1" y2="248.4" stroke="#1a1a1a" stroke-width="0.9"/><line x1="94.0" y1="243.8" x2="95.9" y2="248.4" stroke="#1a1a1a" stroke-width="0.9"/><line x1="90.0" y1="215.0" x2="98.0" y2="215.0" stroke="#1a1a1a" stroke-width="0.6"/><line x1="90.0" y1="243.8" x2="98.0" y2="243.8" stroke="#1a1a1a" stroke-width="0.6"/><text x="89.0" y="233.2" font-family="Verdana, Arial, sans-serif" font-size="11" font-weight="normal" text-anchor="end" fill="#111">12"</text><line x1="356.4" y1="215.0" x2="356.4" y2="243.8" stroke="#1a1a1a" stroke-width="0.8"/><line x1="356.4" y1="215.0" x2="358.3" y2="210.4" stroke="#1a1a1a" stroke-width="0.9"/><line x1="356.4" y1="215.0" x2="354.5" y2="210.4" stroke="#1a1a1a" stroke-width="0.9"/><line x1="356.4" y1="243.8" x2="354.5" y2="248.4" stroke="#1a1a1a" stroke-width="0.9"/><line x1="356.4" y1="243.8" x2="358.3" y2="248.4" stroke="#1a1a1a" stroke-width="0.9"/><line x1="352.4" y1="215.0" x2="360.4" y2="215.0" stroke="#1a1a1a" stroke-width="0.6"/><line x1="352.4" y1="243.8" x2="360.4" y2="243.8" stroke="#1a1a1a" stroke-width="0.6"/><text x="361.4" y="233.2" font-family="Verdana, Arial, sans-serif" font-size="11" font-weight="normal" text-anchor="start" fill="#111">12"</text><line x1="94.0" y1="243.8" x2="94.0" y2="301.4" stroke="#1a1a1a" stroke-width="0.8"/><line x1="94.0" y1="243.8" x2="95.9" y2="239.2" stroke="#1a1a1a" stroke-width="0.9"/><line x1="94.0" y1="243.8" x2="92.1" y2="239.2" stroke="#1a1a1a" stroke-width="0.9"/><line x1="94.0" y1="301.4" x2="92.1" y2="306.0" stroke="#1a1a1a" stroke-width="0.9"/><line x1="94.0" y1="301.4" x2="95.9" y2="306.0" stroke="#1a1a1a" stroke-width="0.9"/><line x1="90.0" y1="243.8" x2="98.0" y2="243.8" stroke="#1a1a1a" stroke-width="0.6"/><line x1="90.0" y1="301.4" x2="98.0" y2="301.4" stroke="#1a1a1a" stroke-width="0.6"/><text x="89.0" y="276.5" font-family="Verdana, Arial, sans-serif" font-size="11" font-weight="normal" text-anchor="end" fill="#111">24"</text><line x1="356.4" y1="243.8" x2="356.4" y2="301.4" stroke="#1a1a1a" stroke-width="0.8"/><line x1="356.4" y1="243.8" x2="358.3" y2="239.2" stroke="#1a1a1a" stroke-width="0.9"/><line x1="356.4" y1="243.8" x2="354.5" y2="239.2" stroke="#1a1a1a" stroke-width="0.9"/><line x1="356.4" y1="301.4" x2="354.5" y2="306.0" stroke="#1a1a1a" stroke-width="0.9"/><line x1="356.4" y1="301.4" x2="358.3" y2="306.0" stroke="#1a1a1a" stroke-width="0.9"/><line x1="352.4" y1="243.8" x2="360.4" y2="243.8" stroke="#1a1a1a" stroke-width="0.6"/><line x1="352.4" y1="301.4" x2="360.4" y2="301.4" stroke="#1a1a1a" stroke-width="0.6"/><text x="361.4" y="276.5" font-family="Verdana, Arial, sans-serif" font-size="11" font-weight="normal" text-anchor="start" fill="#111">24"</text><line x1="94.0" y1="301.4" x2="94.0" y2="359.0" stroke="#1a1a1a" stroke-width="0.8"/><line x1="94.0" y1="301.4" x2="95.9" y2="296.8" stroke="#1a1a1a" stroke-width="0.9"/><line x1="94.0" y1="301.4" x2="92.1" y2="296.8" stroke="#1a1a1a" stroke-width="0.9"/><line x1="94.0" y1="359.0" x2="92.1" y2="363.6" stroke="#1a1a1a" stroke-width="0.9"/><line x1="94.0" y1="359.0" x2="95.9" y2="363.6" stroke="#1a1a1a" stroke-width="0.9"/><line x1="90.0" y1="301.4" x2="98.0" y2="301.4" stroke="#1a1a1a" stroke-width="0.6"/><line x1="90.0" y1="359.0" x2="98.0" y2="359.0" stroke="#1a1a1a" stroke-width="0.6"/><text x="89.0" y="334.1" font-family="Verdana, Arial, sans-serif" font-size="11" font-weight="normal" text-anchor="end" fill="#111">24"</text><line x1="356.4" y1="301.4" x2="356.4" y2="359.0" stroke="#1a1a1a" stroke-width="0.8"/><line x1="356.4" y1="301.4" x2="358.3" y2="296.8" stroke="#1a1a1a" stroke-width="0.9"/><line x1="356.4" y1="301.4" x2="354.5" y2="296.8" stroke="#1a1a1a" stroke-width="0.9"/><line x1="356.4" y1="359.0" x2="354.5" y2="363.6" stroke="#1a1a1a" stroke-width="0.9"/><line x1="356.4" y1="359.0" x2="358.3" y2="363.6" stroke="#1a1a1a" stroke-width="0.9"/><line x1="352.4" y1="301.4" x2="360.4" y2="301.4" stroke="#1a1a1a" stroke-width="0.6"/><line x1="352.4" y1="359.0" x2="360.4" y2="359.0" stroke="#1a1a1a" stroke-width="0.6"/><text x="361.4" y="334.1" font-family="Verdana, Arial, sans-serif" font-size="11" font-weight="normal" text-anchor="start" fill="#111">24"</text><line x1="94.0" y1="359.0" x2="94.0" y2="416.6" stroke="#1a1a1a" stroke-width="0.8"/><line x1="94.0" y1="359.0" x2="95.9" y2="354.4" stroke="#1a1a1a" stroke-width="0.9"/><line x1="94.0" y1="359.0" x2="92.1" y2="354.4" stroke="#1a1a1a" stroke-width="0.9"/><line x1="94.0" y1="416.6" x2="92.1" y2="421.2" stroke="#1a1a1a" stroke-width="0.9"/><line x1="94.0" y1="416.6" x2="95.9" y2="421.2" stroke="#1a1a1a" stroke-width="0.9"/><line x1="90.0" y1="359.0" x2="98.0" y2="359.0" stroke="#1a1a1a" stroke-width="0.6"/><line x1="90.0" y1="416.6" x2="98.0" y2="416.6" stroke="#1a1a1a" stroke-width="0.6"/><text x="89.0" y="391.7" font-family="Verdana, Arial, sans-serif" font-size="11" font-weight="normal" text-anchor="end" fill="#111">24"</text><line x1="356.4" y1="359.0" x2="356.4" y2="416.6" stroke="#1a1a1a" stroke-width="0.8"/><line x1="356.4" y1="359.0" x2="358.3" y2="354.4" stroke="#1a1a1a" stroke-width="0.9"/><line x1="356.4" y1="359.0" x2="354.5" y2="354.4" stroke="#1a1a1a" stroke-width="0.9"/><line x1="356.4" y1="416.6" x2="354.5" y2="421.2" stroke="#1a1a1a" stroke-width="0.9"/><line x1="356.4" y1="416.6" x2="358.3" y2="421.2" stroke="#1a1a1a" stroke-width="0.9"/><line x1="352.4" y1="359.0" x2="360.4" y2="359.0" stroke="#1a1a1a" stroke-width="0.6"/><line x1="352.4" y1="416.6" x2="360.4" y2="416.6" stroke="#1a1a1a" stroke-width="0.6"/><text x="361.4" y="391.7" font-family="Verdana, Arial, sans-serif" font-size="11" font-weight="normal" text-anchor="start" fill="#111">24"</text><line x1="94.0" y1="416.6" x2="94.0" y2="474.2" stroke="#1a1a1a" stroke-width="0.8"/><line x1="94.0" y1="416.6" x2="95.9" y2="412.0" stroke="#1a1a1a" stroke-width="0.9"/><line x1="94.0" y1="416.6" x2="92.1" y2="412.0" stroke="#1a1a1a" stroke-width="0.9"/><line x1="94.0" y1="474.2" x2="92.1" y2="478.8" stroke="#1a1a1a" stroke-width="0.9"/><line x1="94.0" y1="474.2" x2="95.9" y2="478.8" stroke="#1a1a1a" stroke-width="0.9"/><line x1="90.0" y1="416.6" x2="98.0" y2="416.6" stroke="#1a1a1a" stroke-width="0.6"/><line x1="90.0" y1="474.2" x2="98.0" y2="474.2" stroke="#1a1a1a" stroke-width="0.6"/><text x="89.0" y="449.2" font-family="Verdana, Arial, sans-serif" font-size="11" font-weight="normal" text-anchor="end" fill="#111">24"</text><line x1="356.4" y1="416.6" x2="356.4" y2="474.2" stroke="#1a1a1a" stroke-width="0.8"/><line x1="356.4" y1="416.6" x2="358.3" y2="412.0" stroke="#1a1a1a" stroke-width="0.9"/><line x1="356.4" y1="416.6" x2="354.5" y2="412.0" stroke="#1a1a1a" stroke-width="0.9"/><line x1="356.4" y1="474.2" x2="354.5" y2="478.8" stroke="#1a1a1a" stroke-width="0.9"/><line x1="356.4" y1="474.2" x2="358.3" y2="478.8" stroke="#1a1a1a" stroke-width="0.9"/><line x1="352.4" y1="416.6" x2="360.4" y2="416.6" stroke="#1a1a1a" stroke-width="0.6"/><line x1="352.4" y1="474.2" x2="360.4" y2="474.2" stroke="#1a1a1a" stroke-width="0.6"/><text x="361.4" y="449.2" font-family="Verdana, Arial, sans-serif" font-size="11" font-weight="normal" text-anchor="start" fill="#111">24"</text><line x1="94.0" y1="474.2" x2="94.0" y2="531.8" stroke="#1a1a1a" stroke-width="0.8"/><line x1="94.0" y1="474.2" x2="95.9" y2="469.6" stroke="#1a1a1a" stroke-width="0.9"/><line x1="94.0" y1="474.2" x2="92.1" y2="469.6" stroke="#1a1a1a" stroke-width="0.9"/><line x1="94.0" y1="531.8" x2="92.1" y2="536.4" stroke="#1a1a1a" stroke-width="0.9"/><line x1="94.0" y1="531.8" x2="95.9" y2="536.4" stroke="#1a1a1a" stroke-width="0.9"/><line x1="90.0" y1="474.2" x2="98.0" y2="474.2" stroke="#1a1a1a" stroke-width="0.6"/><line x1="90.0" y1="531.8" x2="98.0" y2="531.8" stroke="#1a1a1a" stroke-width="0.6"/><text x="89.0" y="506.9" font-family="Verdana, Arial, sans-serif" font-size="11" font-weight="normal" text-anchor="end" fill="#111">24"</text><line x1="356.4" y1="474.2" x2="356.4" y2="531.8" stroke="#1a1a1a" stroke-width="0.8"/><line x1="356.4" y1="474.2" x2="358.3" y2="469.6" stroke="#1a1a1a" stroke-width="0.9"/><line x1="356.4" y1="474.2" x2="354.5" y2="469.6" stroke="#1a1a1a" stroke-width="0.9"/><line x1="356.4" y1="531.8" x2="354.5" y2="536.4" stroke="#1a1a1a" stroke-width="0.9"/><line x1="356.4" y1="531.8" x2="358.3" y2="536.4" stroke="#1a1a1a" stroke-width="0.9"/><line x1="352.4" y1="474.2" x2="360.4" y2="474.2" stroke="#1a1a1a" stroke-width="0.6"/><line x1="352.4" y1="531.8" x2="360.4" y2="531.8" stroke="#1a1a1a" stroke-width="0.6"/><text x="361.4" y="506.9" font-family="Verdana, Arial, sans-serif" font-size="11" font-weight="normal" text-anchor="start" fill="#111">24"</text><line x1="94.0" y1="531.8" x2="94.0" y2="589.4" stroke="#1a1a1a" stroke-width="0.8"/><line x1="94.0" y1="531.8" x2="95.9" y2="527.2" stroke="#1a1a1a" stroke-width="0.9"/><line x1="94.0" y1="531.8" x2="92.1" y2="527.2" stroke="#1a1a1a" stroke-width="0.9"/><line x1="94.0" y1="589.4" x2="92.1" y2="594.0" stroke="#1a1a1a" stroke-width="0.9"/><line x1="94.0" y1="589.4" x2="95.9" y2="594.0" stroke="#1a1a1a" stroke-width="0.9"/><line x1="90.0" y1="531.8" x2="98.0" y2="531.8" stroke="#1a1a1a" stroke-width="0.6"/><line x1="90.0" y1="589.4" x2="98.0" y2="589.4" stroke="#1a1a1a" stroke-width="0.6"/><text x="89.0" y="564.4" font-family="Verdana, Arial, sans-serif" font-size="11" font-weight="normal" text-anchor="end" fill="#111">24"</text><line x1="356.4" y1="531.8" x2="356.4" y2="589.4" stroke="#1a1a1a" stroke-width="0.8"/><line x1="356.4" y1="531.8" x2="358.3" y2="527.2" stroke="#1a1a1a" stroke-width="0.9"/><line x1="356.4" y1="531.8" x2="354.5" y2="527.2" stroke="#1a1a1a" stroke-width="0.9"/><line x1="356.4" y1="589.4" x2="354.5" y2="594.0" stroke="#1a1a1a" stroke-width="0.9"/><line x1="356.4" y1="589.4" x2="358.3" y2="594.0" stroke="#1a1a1a" stroke-width="0.9"/><line x1="352.4" y1="531.8" x2="360.4" y2="531.8" stroke="#1a1a1a" stroke-width="0.6"/><line x1="352.4" y1="589.4" x2="360.4" y2="589.4" stroke="#1a1a1a" stroke-width="0.6"/><text x="361.4" y="564.4" font-family="Verdana, Arial, sans-serif" font-size="11" font-weight="normal" text-anchor="start" fill="#111">24"</text><line x1="94.0" y1="589.4" x2="94.0" y2="618.2" stroke="#1a1a1a" stroke-width="0.8"/><line x1="94.0" y1="589.4" x2="95.9" y2="584.8" stroke="#1a1a1a" stroke-width="0.9"/><line x1="94.0" y1="589.4" x2="92.1" y2="584.8" stroke="#1a1a1a" stroke-width="0.9"/><line x1="94.0" y1="618.2" x2="92.1" y2="622.8" stroke="#1a1a1a" stroke-width="0.9"/><line x1="94.0" y1="618.2" x2="95.9" y2="622.8" stroke="#1a1a1a" stroke-width="0.9"/><line x1="90.0" y1="589.4" x2="98.0" y2="589.4" stroke="#1a1a1a" stroke-width="0.6"/><line x1="90.0" y1="618.2" x2="98.0" y2="618.2" stroke="#1a1a1a" stroke-width="0.6"/><text x="89.0" y="607.6" font-family="Verdana, Arial, sans-serif" font-size="11" font-weight="normal" text-anchor="end" fill="#111">12"</text><line x1="356.4" y1="589.4" x2="356.4" y2="618.2" stroke="#1a1a1a" stroke-width="0.8"/><line x1="356.4" y1="589.4" x2="358.3" y2="584.8" stroke="#1a1a1a" stroke-width="0.9"/><line x1="356.4" y1="589.4" x2="354.5" y2="584.8" stroke="#1a1a1a" stroke-width="0.9"/><line x1="356.4" y1="618.2" x2="354.5" y2="622.8" stroke="#1a1a1a" stroke-width="0.9"/><line x1="356.4" y1="618.2" x2="358.3" y2="622.8" stroke="#1a1a1a" stroke-width="0.9"/><line x1="352.4" y1="589.4" x2="360.4" y2="589.4" stroke="#1a1a1a" stroke-width="0.6"/><line x1="352.4" y1="618.2" x2="360.4" y2="618.2" stroke="#1a1a1a" stroke-width="0.6"/><text x="361.4" y="607.6" font-family="Verdana, Arial, sans-serif" font-size="11" font-weight="normal" text-anchor="start" fill="#111">12"</text><line x1="110.0" y1="670.2" x2="138.8" y2="670.2" stroke="#1a1a1a" stroke-width="0.8"/><line x1="110.0" y1="670.2" x2="105.4" y2="668.3" stroke="#1a1a1a" stroke-width="0.9"/><line x1="110.0" y1="670.2" x2="105.4" y2="672.1" stroke="#1a1a1a" stroke-width="0.9"/><line x1="138.8" y1="670.2" x2="143.4" y2="672.1" stroke="#1a1a1a" stroke-width="0.9"/><line x1="138.8" y1="670.2" x2="143.4" y2="668.3" stroke="#1a1a1a" stroke-width="0.9"/><line x1="110.0" y1="666.2" x2="110.0" y2="674.2" stroke="#1a1a1a" stroke-width="0.6"/><line x1="138.8" y1="666.2" x2="138.8" y2="674.2" stroke="#1a1a1a" stroke-width="0.6"/><text x="124.4" y="666.2" font-family="Verdana, Arial, sans-serif" font-size="11" font-weight="normal" text-anchor="middle" fill="#111">12"</text><line x1="138.8" y1="670.2" x2="254.0" y2="670.2" stroke="#1a1a1a" stroke-width="0.8"/><line x1="138.8" y1="670.2" x2="134.2" y2="668.3" stroke="#1a1a1a" stroke-width="0.9"/><line x1="138.8" y1="670.2" x2="134.2" y2="672.1" stroke="#1a1a1a" stroke-width="0.9"/><line x1="254.0" y1="670.2" x2="258.6" y2="672.1" stroke="#1a1a1a" stroke-width="0.9"/><line x1="254.0" y1="670.2" x2="258.6" y2="668.3" stroke="#1a1a1a" stroke-width="0.9"/><line x1="138.8" y1="666.2" x2="138.8" y2="674.2" stroke="#1a1a1a" stroke-width="0.6"/><line x1="254.0" y1="666.2" x2="254.0" y2="674.2" stroke="#1a1a1a" stroke-width="0.6"/><text x="196.4" y="666.2" font-family="Verdana, Arial, sans-serif" font-size="11" font-weight="normal" text-anchor="middle" fill="#111">48"</text><line x1="254.0" y1="670.2" x2="311.6" y2="670.2" stroke="#1a1a1a" stroke-width="0.8"/><line x1="254.0" y1="670.2" x2="249.4" y2="668.3" stroke="#1a1a1a" stroke-width="0.9"/><line x1="254.0" y1="670.2" x2="249.4" y2="672.1" stroke="#1a1a1a" stroke-width="0.9"/><line x1="311.6" y1="670.2" x2="316.2" y2="672.1" stroke="#1a1a1a" stroke-width="0.9"/><line x1="311.6" y1="670.2" x2="316.2" y2="668.3" stroke="#1a1a1a" stroke-width="0.9"/><line x1="254.0" y1="666.2" x2="254.0" y2="674.2" stroke="#1a1a1a" stroke-width="0.6"/><line x1="311.6" y1="666.2" x2="311.6" y2="674.2" stroke="#1a1a1a" stroke-width="0.6"/><text x="282.8" y="666.2" font-family="Verdana, Arial, sans-serif" font-size="11" font-weight="normal" text-anchor="middle" fill="#111">24"</text><line x1="311.6" y1="670.2" x2="340.4" y2="670.2" stroke="#1a1a1a" stroke-width="0.8"/><line x1="311.6" y1="670.2" x2="307.0" y2="668.3" stroke="#1a1a1a" stroke-width="0.9"/><line x1="311.6" y1="670.2" x2="307.0" y2="672.1" stroke="#1a1a1a" stroke-width="0.9"/><line x1="340.4" y1="670.2" x2="345.0" y2="672.1" stroke="#1a1a1a" stroke-width="0.9"/><line x1="340.4" y1="670.2" x2="345.0" y2="668.3" stroke="#1a1a1a" stroke-width="0.9"/><line x1="311.6" y1="666.2" x2="311.6" y2="674.2" stroke="#1a1a1a" stroke-width="0.6"/><line x1="340.4" y1="666.2" x2="340.4" y2="674.2" stroke="#1a1a1a" stroke-width="0.6"/><text x="326.0" y="666.2" font-family="Verdana, Arial, sans-serif" font-size="11" font-weight="normal" text-anchor="middle" fill="#111">12"</text><line x1="155.6" y1="598.6" x2="237.2" y2="598.6" stroke="#1a1a1a" stroke-width="0.8"/><line x1="155.6" y1="598.6" x2="151.0" y2="596.7" stroke="#1a1a1a" stroke-width="0.9"/><line x1="155.6" y1="598.6" x2="151.0" y2="600.5" stroke="#1a1a1a" stroke-width="0.9"/><line x1="237.2" y1="598.6" x2="241.8" y2="600.5" stroke="#1a1a1a" stroke-width="0.9"/><line x1="237.2" y1="598.6" x2="241.8" y2="596.7" stroke="#1a1a1a" stroke-width="0.9"/><line x1="155.6" y1="594.6" x2="155.6" y2="602.6" stroke="#1a1a1a" stroke-width="0.6"/><line x1="237.2" y1="594.6" x2="237.2" y2="602.6" stroke="#1a1a1a" stroke-width="0.6"/><text x="196.4" y="594.6" font-family="Verdana, Arial, sans-serif" font-size="11" font-weight="normal" text-anchor="middle" fill="#111">34"</text><rect x="500.0" y="215.0" width="230.4" height="403.2" fill="none" stroke="#1a1a1a" stroke-width="1.4"/><rect x="504.8" y="219.8" width="220.8" height="393.6" fill="none" stroke="#1a1a1a" stroke-width="0.8"/><line x1="504.8" y1="272.6" x2="725.6" y2="272.6" stroke="#1a1a1a" stroke-width="0.8"/><line x1="504.8" y1="330.2" x2="725.6" y2="330.2" stroke="#1a1a1a" stroke-width="0.8"/><line x1="504.8" y1="387.8" x2="725.6" y2="387.8" stroke="#1a1a1a" stroke-width="0.8"/><line x1="504.8" y1="445.4" x2="725.6" y2="445.4" stroke="#1a1a1a" stroke-width="0.8"/><line x1="504.8" y1="503.0" x2="725.6" y2="503.0" stroke="#1a1a1a" stroke-width="0.8"/><line x1="504.8" y1="560.6" x2="725.6" y2="560.6" stroke="#1a1a1a" stroke-width="0.8"/><text x="526.8" y="247.8" font-family="Verdana, Arial, sans-serif" font-size="11" font-weight="normal" text-anchor="middle" fill="#111">24"</text><text x="526.8" y="305.4" font-family="Verdana, Arial, sans-serif" font-size="11" font-weight="normal" text-anchor="middle" fill="#111">24"</text><text x="526.8" y="363.0" font-family="Verdana, Arial, sans-serif" font-size="11" font-weight="normal" text-anchor="middle" fill="#111">24"</text><text x="526.8" y="420.6" font-family="Verdana, Arial, sans-serif" font-size="11" font-weight="normal" text-anchor="middle" fill="#111">24"</text><text x="526.8" y="478.2" font-family="Verdana, Arial, sans-serif" font-size="11" font-weight="normal" text-anchor="middle" fill="#111">24"</text><text x="526.8" y="535.8" font-family="Verdana, Arial, sans-serif" font-size="11" font-weight="normal" text-anchor="middle" fill="#111">24"</text><text x="526.8" y="593.4" font-family="Verdana, Arial, sans-serif" font-size="11" font-weight="normal" text-anchor="middle" fill="#111">24"</text><line x1="500.0" y1="199.0" x2="730.4" y2="199.0" stroke="#1a1a1a" stroke-width="0.8"/><line x1="500.0" y1="199.0" x2="495.4" y2="197.1" stroke="#1a1a1a" stroke-width="0.9"/><line x1="500.0" y1="199.0" x2="495.4" y2="200.9" stroke="#1a1a1a" stroke-width="0.9"/><line x1="730.4" y1="199.0" x2="735.0" y2="200.9" stroke="#1a1a1a" stroke-width="0.9"/><line x1="730.4" y1="199.0" x2="735.0" y2="197.1" stroke="#1a1a1a" stroke-width="0.9"/><line x1="500.0" y1="195.0" x2="500.0" y2="203.0" stroke="#1a1a1a" stroke-width="0.6"/><line x1="730.4" y1="195.0" x2="730.4" y2="203.0" stroke="#1a1a1a" stroke-width="0.6"/><text x="615.2" y="195.0" font-family="Verdana, Arial, sans-serif" font-size="12" font-weight="normal" text-anchor="middle" fill="#111">96"</text><line x1="760.4" y1="215.0" x2="760.4" y2="618.2" stroke="#1a1a1a" stroke-width="0.8"/><line x1="760.4" y1="215.0" x2="762.3" y2="210.4" stroke="#1a1a1a" stroke-width="0.9"/><line x1="760.4" y1="215.0" x2="758.5" y2="210.4" stroke="#1a1a1a" stroke-width="0.9"/><line x1="760.4" y1="618.2" x2="758.5" y2="622.8" stroke="#1a1a1a" stroke-width="0.9"/><line x1="760.4" y1="618.2" x2="762.3" y2="622.8" stroke="#1a1a1a" stroke-width="0.9"/><line x1="756.4" y1="215.0" x2="764.4" y2="215.0" stroke="#1a1a1a" stroke-width="0.6"/><line x1="756.4" y1="618.2" x2="764.4" y2="618.2" stroke="#1a1a1a" stroke-width="0.6"/><text x="765.4" y="420.8" font-family="Verdana, Arial, sans-serif" font-size="12" font-weight="normal" text-anchor="start" fill="#111">168"</text><text x="110.0" y="704.2" font-family="Verdana, Arial, sans-serif" font-size="18" font-weight="bold" text-anchor="start" fill="#111">All Swing Door</text><text x="225.2" y="718.2" font-family="Verdana, Arial, sans-serif" font-size="11" font-weight="normal" text-anchor="middle" fill="#666">(front view — aligned below)</text><rect x="110.0" y="748.2" width="230.4" height="216.0" fill="none" stroke="#1a1a1a" stroke-width="1.4"/><line x1="110.0" y1="757.8" x2="340.4" y2="757.8" stroke="#1a1a1a" stroke-width="0.8"/><line x1="110.0" y1="954.6" x2="340.4" y2="954.6" stroke="#1a1a1a" stroke-width="0.8"/><line x1="138.8" y1="757.8" x2="138.8" y2="954.6" stroke="#1a1a1a" stroke-width="0.7"/><line x1="254.0" y1="757.8" x2="254.0" y2="954.6" stroke="#1a1a1a" stroke-width="0.7"/><line x1="311.6" y1="757.8" x2="311.6" y2="954.6" stroke="#1a1a1a" stroke-width="0.7"/><rect x="155.6" y="765.0" width="81.6" height="182.4" fill="none" stroke="#1a1a1a" stroke-width="1.2"/><line x1="196.4" y1="765.0" x2="196.4" y2="947.4" stroke="#bbb" stroke-width="0.4"/><rect x="219.7" y="765.7" width="6.2" height="15.8" rx="3.1" ry="3.1" fill="#ffffff" stroke="#e02222" stroke-width="1.3"/><line x1="220.8" y1="773.6" x2="224.8" y2="773.6" stroke="#e02222" stroke-width="0.8"/><rect x="151.9" y="786.6" width="6.7" height="18.2" rx="2.2" ry="2.2" fill="#ffffff" stroke="#e02222" stroke-width="1.3"/><rect x="157.0" y="791.2" width="22.6" height="9.1" rx="4.6" ry="4.6" fill="#ffffff" stroke="#e02222" stroke-width="1.3"/><circle cx="158.7" cy="795.7" r="2.4" fill="#ffffff" stroke="#e02222" stroke-width="1.0"/><rect x="151.9" y="925.6" width="6.7" height="18.2" rx="2.2" ry="2.2" fill="#ffffff" stroke="#e02222" stroke-width="1.3"/><rect x="157.0" y="930.1" width="22.6" height="9.1" rx="4.6" ry="4.6" fill="#ffffff" stroke="#e02222" stroke-width="1.3"/><circle cx="158.7" cy="934.7" r="2.4" fill="#ffffff" stroke="#e02222" stroke-width="1.0"/><line x1="203.6" y1="862.2" x2="224.0" y2="862.2" stroke="#e02222" stroke-width="1.5"/><rect x="221.0" y="856.9" width="18.0" height="10.6" rx="2.6" ry="2.6" fill="#ffffff" stroke="#e02222" stroke-width="1.3"/><line x1="221.0" y1="862.2" x2="239.0" y2="862.2" stroke="#e02222" stroke-width="0.7"/><circle cx="233.2" cy="862.2" r="4.1" fill="#ffffff" stroke="#e02222" stroke-width="1.3"/><rect x="106.9" y="785.9" width="6.2" height="15.8" rx="3.1" ry="3.1" fill="#ffffff" stroke="#2b5fb3" stroke-width="1.3"/><line x1="108.0" y1="793.8" x2="112.0" y2="793.8" stroke="#2b5fb3" stroke-width="0.8"/><rect x="337.3" y="785.9" width="6.2" height="15.8" rx="3.1" ry="3.1" fill="#ffffff" stroke="#2b5fb3" stroke-width="1.3"/><line x1="338.4" y1="793.8" x2="342.4" y2="793.8" stroke="#2b5fb3" stroke-width="0.8"/><rect x="106.9" y="901.1" width="6.2" height="15.8" rx="3.1" ry="3.1" fill="#ffffff" stroke="#2b5fb3" stroke-width="1.3"/><line x1="108.0" y1="909.0" x2="112.0" y2="909.0" stroke="#2b5fb3" stroke-width="0.8"/><rect x="337.3" y="901.1" width="6.2" height="15.8" rx="3.1" ry="3.1" fill="#ffffff" stroke="#2b5fb3" stroke-width="1.3"/><line x1="338.4" y1="909.0" x2="342.4" y2="909.0" stroke="#2b5fb3" stroke-width="0.8"/><line x1="344.4" y1="793.8" x2="406.4" y2="851.4" stroke="#2b5fb3" stroke-width="0.7"/><line x1="344.4" y1="909.0" x2="406.4" y2="851.4" stroke="#2b5fb3" stroke-width="0.7"/><text x="410.4" y="855.4" font-family="Verdana, Arial, sans-serif" font-size="11" font-weight="normal" text-anchor="start" fill="#2b5fb3">CAM-LOCK</text><line x1="110.0" y1="734.2" x2="340.4" y2="734.2" stroke="#1a1a1a" stroke-width="0.8"/><line x1="110.0" y1="734.2" x2="105.4" y2="732.3" stroke="#1a1a1a" stroke-width="0.9"/><line x1="110.0" y1="734.2" x2="105.4" y2="736.1" stroke="#1a1a1a" stroke-width="0.9"/><line x1="340.4" y1="734.2" x2="345.0" y2="736.1" stroke="#1a1a1a" stroke-width="0.9"/><line x1="340.4" y1="734.2" x2="345.0" y2="732.3" stroke="#1a1a1a" stroke-width="0.9"/><line x1="110.0" y1="730.2" x2="110.0" y2="738.2" stroke="#1a1a1a" stroke-width="0.6"/><line x1="340.4" y1="730.2" x2="340.4" y2="738.2" stroke="#1a1a1a" stroke-width="0.6"/><text x="225.2" y="730.2" font-family="Verdana, Arial, sans-serif" font-size="12" font-weight="normal" text-anchor="middle" fill="#111">96"</text><line x1="155.6" y1="785.4" x2="237.2" y2="785.4" stroke="#1a1a1a" stroke-width="0.8"/><line x1="155.6" y1="785.4" x2="151.0" y2="783.5" stroke="#1a1a1a" stroke-width="0.9"/><line x1="155.6" y1="785.4" x2="151.0" y2="787.3" stroke="#1a1a1a" stroke-width="0.9"/><line x1="237.2" y1="785.4" x2="241.8" y2="787.3" stroke="#1a1a1a" stroke-width="0.9"/><line x1="237.2" y1="785.4" x2="241.8" y2="783.5" stroke="#1a1a1a" stroke-width="0.9"/><line x1="155.6" y1="781.4" x2="155.6" y2="789.4" stroke="#1a1a1a" stroke-width="0.6"/><line x1="237.2" y1="781.4" x2="237.2" y2="789.4" stroke="#1a1a1a" stroke-width="0.6"/><text x="196.4" y="781.4" font-family="Verdana, Arial, sans-serif" font-size="11" font-weight="normal" text-anchor="middle" fill="#111">34"</text><line x1="186.8" y1="765.0" x2="186.8" y2="947.4" stroke="#1a1a1a" stroke-width="0.8"/><line x1="186.8" y1="765.0" x2="188.7" y2="760.4" stroke="#1a1a1a" stroke-width="0.9"/><line x1="186.8" y1="765.0" x2="184.9" y2="760.4" stroke="#1a1a1a" stroke-width="0.9"/><line x1="186.8" y1="947.4" x2="184.9" y2="952.0" stroke="#1a1a1a" stroke-width="0.9"/><line x1="186.8" y1="947.4" x2="188.7" y2="952.0" stroke="#1a1a1a" stroke-width="0.9"/><line x1="182.8" y1="765.0" x2="190.8" y2="765.0" stroke="#1a1a1a" stroke-width="0.6"/><line x1="182.8" y1="947.4" x2="190.8" y2="947.4" stroke="#1a1a1a" stroke-width="0.6"/><text x="181.8" y="860.1" font-family="Verdana, Arial, sans-serif" font-size="11" font-weight="normal" text-anchor="end" fill="#111">76"</text><line x1="80.0" y1="757.8" x2="80.0" y2="954.6" stroke="#1a1a1a" stroke-width="0.8"/><line x1="80.0" y1="757.8" x2="81.9" y2="753.2" stroke="#1a1a1a" stroke-width="0.9"/><line x1="80.0" y1="757.8" x2="78.1" y2="753.2" stroke="#1a1a1a" stroke-width="0.9"/><line x1="80.0" y1="954.6" x2="78.1" y2="959.2" stroke="#1a1a1a" stroke-width="0.9"/><line x1="80.0" y1="954.6" x2="81.9" y2="959.2" stroke="#1a1a1a" stroke-width="0.9"/><line x1="76.0" y1="757.8" x2="84.0" y2="757.8" stroke="#1a1a1a" stroke-width="0.6"/><line x1="76.0" y1="954.6" x2="84.0" y2="954.6" stroke="#1a1a1a" stroke-width="0.6"/><text x="75.0" y="860.1" font-family="Verdana, Arial, sans-serif" font-size="11" font-weight="normal" text-anchor="end" fill="#111">82"</text><text x="80.0" y="757.0" font-family="Verdana, Arial, sans-serif" font-size="10" font-weight="normal" text-anchor="end" fill="#111">4"</text><text x="80.0" y="963.4" font-family="Verdana, Arial, sans-serif" font-size="10" font-weight="normal" text-anchor="end" fill="#111">4"</text><text x="760.0" y="1004.2" font-family="Verdana, Arial, sans-serif" font-size="11" font-weight="normal" text-anchor="end" fill="#555">Footprint 8' x 14' (112 sq ft) | walls in 24" panels, 12" corner posts</text></svg>