<svg xmlns="http://www.w3.org/2000/svg" width="780" height="1020.0" viewBox="0 0 780 1020.0"><rect width="780" height="1020.0" fill="#eef0f1"/><text x="390.0" y="50.0" font-family="Verdana, Arial, sans-serif" font-size="30" font-weight="bold" text-anchor="middle" fill="#111">IceHouse 8' x 16'</text><line x1="60.0" y1="64.0" x2="720.0" y2="64.0" stroke="#1a1a1a" stroke-width="0.8"/><text x="95.0" y="120.0" font-family="Verdana, Arial, sans-serif" font-size="20" font-weight="bold" text-anchor="start" fill="#111">Wall Panels</text><text x="470.0" y="120.0" font-family="Verdana, Arial, sans-serif" font-size="18" font-weight="bold" text-anchor="start" fill="#111">Ceiling/Floor Panels</text><text x="390.0" y="145.0" font-family="Verdana, Arial, sans-serif" font-size="12" font-weight="normal" text-anchor="middle" fill="#666">(footprint width fixed at 8' / 96" — depth = 16')</text><rect x="95.0" y="190.0" width="240.0" height="480.0" fill="none" stroke="#1a1a1a" stroke-width="1.4"/><rect x="107.5" y="202.5" width="215.0" height="455.0" fill="none" stroke="#1a1a1a" stroke-width="0.8"/><rect x="95.0" y="190.0" width="30.0" height="30.0" fill="none" stroke="#cc2222" stroke-width="1.0"/><line x1="95.0" y1="195.0" x2="100.0" y2="190.0" stroke="#cc2222" stroke-width="0.6"/><line x1="120.0" y1="220.0" x2="125.0" y2="215.0" stroke="#cc2222" stroke-width="0.6"/><line x1="95.0" y1="200.0" x2="105.0" y2="190.0" stroke="#cc2222" stroke-width="0.6"/><line x1="115.0" y1="220.0" x2="125.0" y2="210.0" stroke="#cc2222" stroke-width="0.6"/><line x1="95.0" y1="205.0" x2="110.0" y2="190.0" stroke="#cc2222" stroke-width="0.6"/><line x1="110.0" y1="220.0" x2="125.0" y2="205.0" stroke="#cc2222" stroke-width="0.6"/><line x1="95.0" y1="210.0" x2="115.0" y2="190.0" stroke="#cc2222" stroke-width="0.6"/><line x1="105.0" y1="220.0" x2="125.0" y2="200.0" stroke="#cc2222" stroke-width="0.6"/><line x1="95.0" y1="215.0" x2="120.0" y2="190.0" stroke="#cc2222" stroke-width="0.6"/><line x1="100.0" y1="220.0" x2="125.0" y2="195.0" stroke="#cc2222" stroke-width="0.6"/><rect x="305.0" y="190.0" width="30.0" height="30.0" fill="none" stroke="#cc2222" stroke-width="1.0"/><line x1="305.0" y1="195.0" x2="310.0" y2="190.0" stroke="#cc2222" stroke-width="0.6"/><line x1="330.0" y1="220.0" x2="335.0" y2="215.0" stroke="#cc2222" stroke-width="0.6"/><line x1="305.0" y1="200.0" x2="315.0" y2="190.0" stroke="#cc2222" stroke-width="0.6"/><line x1="325.0" y1="220.0" x2="335.0" y2="210.0" stroke="#cc2222" stroke-width="0.6"/><line x1="305.0" y1="205.0" x2="320.0" y2="190.0" stroke="#cc2222" stroke-width="0.6"/><line x1="320.0" y1="220.0" x2="335.0" y2="205.0" stroke="#cc2222" stroke-width="0.6"/><line x1="305.0" y1="210.0" x2="325.0" y2="190.0" stroke="#cc2222" stroke-width="0.6"/><line x1="315.0" y1="220.0" x2="335.0" y2="200.0" stroke="#cc2222" stroke-width="0.6"/><line x1="305.0" y1="215.0" x2="330.0" y2="190.0" stroke="#cc2222" stroke-width="0.6"/><line x1="310.0" y1="220.0" x2="335.0" y2="195.0" stroke="#cc2222" stroke-width="0.6"/><rect x="95.0" y="640.0" width="30.0" height="30.0" fill="none" stroke="#cc2222" stroke-width="1.0"/><line x1="95.0" y1="645.0" x2="100.0" y2="640.0" stroke="#cc2222" stroke-width="0.6"/><line x1="120.0" y1="670.0" x2="125.0" y2="665.0" stroke="#cc2222" stroke-width="0.6"/><line x1="95.0" y1="650.0" x2="105.0" y2="640.0" stroke="#cc2222" stroke-width="0.6"/><line x1="115.0" y1="670.0" x2="125.0" y2="660.0" stroke="#cc2222" stroke-width="0.6"/><line x1="95.0" y1="655.0" x2="110.0" y2="640.0" stroke="#cc2222" stroke-width="0.6"/><line x1="110.0" y1="670.0" x2="125.0" y2="655.0" stroke="#cc2222" stroke-width="0.6"/><line x1="95.0" y1="660.0" x2="115.0" y2="640.0" stroke="#cc2222" stroke-width="0.6"/><line x1="105.0" y1="670.0" x2="125.0" y2="650.0" stroke="#cc2222" stroke-width="0.6"/><line x1="95.0" y1="665.0" x2="120.0" y2="640.0" stroke="#cc2222" stroke-width="0.6"/><line x1="100.0" y1="670.0" x2="125.0" y2="645.0" stroke="#cc2222" stroke-width="0.6"/><rect x="305.0" y="640.0" width="30.0" height="30.0" fill="none" stroke="#cc2222" stroke-width="1.0"/><line x1="305.0" y1="645.0" x2="310.0" y2="640.0" stroke="#cc2222" stroke-width="0.6"/><line x1="330.0" y1="670.0" x2="335.0" y2="665.0" stroke="#cc2222" stroke-width="0.6"/><line x1="305.0" y1="650.0" x2="315.0" y2="640.0" stroke="#cc2222" stroke-width="0.6"/><line x1="325.0" y1="670.0" x2="335.0" y2="660.0" stroke="#cc2222" stroke-width="0.6"/><line x1="305.0" y1="655.0" x2="320.0" y2="640.0" stroke="#cc2222" stroke-width="0.6"/><line x1="320.0" y1="670.0" x2="335.0" y2="655.0" stroke="#cc2222" stroke-width="0.6"/><line x1="305.0" y1="660.0" x2="325.0" y2="640.0" stroke="#cc2222" stroke-width="0.6"/><line x1="315.0" y1="670.0" x2="335.0" y2="650.0" stroke="#cc2222" stroke-width="0.6"/><line x1="305.0" y1="665.0" x2="330.0" y2="640.0" stroke="#cc2222" stroke-width="0.6"/><line x1="310.0" y1="670.0" x2="335.0" y2="645.0" stroke="#cc2222" stroke-width="0.6"/><line x1="125.0" y1="190.0" x2="125.0" y2="202.5" stroke="#1a1a1a" stroke-width="0.7"/><line x1="125.0" y1="657.5" x2="125.0" y2="670.0" stroke="#1a1a1a" stroke-width="0.7"/><line x1="185.0" y1="190.0" x2="185.0" y2="202.5" stroke="#1a1a1a" stroke-width="0.7"/><line x1="185.0" y1="657.5" x2="185.0" y2="670.0" stroke="#1a1a1a" stroke-width="0.7"/><line x1="245.0" y1="190.0" x2="245.0" y2="202.5" stroke="#1a1a1a" stroke-width="0.7"/><line x1="245.0" y1="657.5" x2="245.0" y2="670.0" stroke="#1a1a1a" stroke-width="0.7"/><line x1="305.0" y1="190.0" x2="305.0" y2="202.5" stroke="#1a1a1a" stroke-width="0.7"/><line x1="305.0" y1="657.5" x2="305.0" y2="670.0" stroke="#1a1a1a" stroke-width="0.7"/><line x1="95.0" y1="220.0" x2="107.5" y2="220.0" stroke="#1a1a1a" stroke-width="0.7"/><line x1="322.5" y1="220.0" x2="335.0" y2="220.0" stroke="#1a1a1a" stroke-width="0.7"/><line x1="95.0" y1="280.0" x2="107.5" y2="280.0" stroke="#1a1a1a" stroke-width="0.7"/><line x1="322.5" y1="280.0" x2="335.0" y2="280.0" stroke="#1a1a1a" stroke-width="0.7"/><line x1="95.0" y1="340.0" x2="107.5" y2="340.0" stroke="#1a1a1a" stroke-width="0.7"/><line x1="322.5" y1="340.0" x2="335.0" y2="340.0" stroke="#1a1a1a" stroke-width="0.7"/><line x1="95.0" y1="400.0" x2="107.5" y2="400.0" stroke="#1a1a1a" stroke-width="0.7"/><line x1="322.5" y1="400.0" x2="335.0" y2="400.0" stroke="#1a1a1a" stroke-width="0.7"/><line x1="95.0" y1="460.0" x2="107.5" y2="460.0" stroke="#1a1a1a" stroke-width="0.7"/><line x1="322.5" y1="460.0" x2="335.0" y2="460.0" stroke="#1a1a1a" stroke-width="0.7"/><line x1="95.0" y1="520.0" x2="107.5" y2="520.0" stroke="#1a1a1a" stroke-width="0.7"/><line x1="322.5" y1="520.0" x2="335.0" y2="520.0" stroke="#1a1a1a" stroke-width="0.7"/><line x1="95.0" y1="580.0" x2="107.5" y2="580.0" stroke="#1a1a1a" stroke-width="0.7"/><line x1="322.5" y1="580.0" x2="335.0" y2="580.0" stroke="#1a1a1a" stroke-width="0.7"/><line x1="95.0" y1="640.0" x2="107.5" y2="640.0" stroke="#1a1a1a" stroke-width="0.7"/><line x1="322.5" y1="640.0" x2="335.0" y2="640.0" stroke="#1a1a1a" stroke-width="0.7"/><line x1="95.0" y1="156.0" x2="335.0" y2="156.0" stroke="#1a1a1a" stroke-width="0.9"/><line x1="95.0" y1="156.0" x2="90.4" y2="154.1" stroke="#1a1a1a" stroke-width="1.0"/><line x1="95.0" y1="156.0" x2="90.4" y2="157.9" stroke="#1a1a1a" stroke-width="1.0"/><line x1="335.0" y1="156.0" x2="339.6" y2="157.9" stroke="#1a1a1a" stroke-width="1.0"/><line x1="335.0" y1="156.0" x2="339.6" y2="154.1" stroke="#1a1a1a" stroke-width="1.0"/><line x1="95.0" y1="151.0" x2="95.0" y2="161.0" stroke="#1a1a1a" stroke-width="0.7"/><line x1="335.0" y1="151.0" x2="335.0" y2="161.0" stroke="#1a1a1a" stroke-width="0.7"/><text x="215.0" y="152.0" font-family="Verdana, Arial, sans-serif" font-size="12" font-weight="normal" text-anchor="middle" fill="#111">96"</text><line x1="95.0" y1="176.0" x2="125.0" y2="176.0" stroke="#1a1a1a" stroke-width="0.9"/><line x1="95.0" y1="176.0" x2="90.4" y2="174.1" stroke="#1a1a1a" stroke-width="1.0"/><line x1="95.0" y1="176.0" x2="90.4" y2="177.9" stroke="#1a1a1a" stroke-width="1.0"/><line x1="125.0" y1="176.0" x2="129.6" y2="177.9" stroke="#1a1a1a" stroke-width="1.0"/><line x1="125.0" y1="176.0" x2="129.6" y2="174.1" stroke="#1a1a1a" stroke-width="1.0"/><line x1="95.0" y1="172.0" x2="95.0" y2="180.0" stroke="#1a1a1a" stroke-width="0.7"/><line x1="125.0" y1="172.0" x2="125.0" y2="180.0" stroke="#1a1a1a" stroke-width="0.7"/><text x="110.0" y="172.0" font-family="Verdana, Arial, sans-serif" font-size="10" font-weight="normal" text-anchor="middle" fill="#111">12"</text><line x1="125.0" y1="176.0" x2="185.0" y2="176.0" stroke="#1a1a1a" stroke-width="0.9"/><line x1="125.0" y1="176.0" x2="120.4" y2="174.1" stroke="#1a1a1a" stroke-width="1.0"/><line x1="125.0" y1="176.0" x2="120.4" y2="177.9" stroke="#1a1a1a" stroke-width="1.0"/><line x1="185.0" y1="176.0" x2="189.6" y2="177.9" stroke="#1a1a1a" stroke-width="1.0"/><line x1="185.0" y1="176.0" x2="189.6" y2="174.1" stroke="#1a1a1a" stroke-width="1.0"/><line x1="125.0" y1="172.0" x2="125.0" y2="180.0" stroke="#1a1a1a" stroke-width="0.7"/><line x1="185.0" y1="172.0" x2="185.0" y2="180.0" stroke="#1a1a1a" stroke-width="0.7"/><text x="155.0" y="172.0" font-family="Verdana, Arial, sans-serif" font-size="10" font-weight="normal" text-anchor="middle" fill="#111">24"</text><line x1="185.0" y1="176.0" x2="245.0" y2="176.0" stroke="#1a1a1a" stroke-width="0.9"/><line x1="185.0" y1="176.0" x2="180.4" y2="174.1" stroke="#1a1a1a" stroke-width="1.0"/><line x1="185.0" y1="176.0" x2="180.4" y2="177.9" stroke="#1a1a1a" stroke-width="1.0"/><line x1="245.0" y1="176.0" x2="249.6" y2="177.9" stroke="#1a1a1a" stroke-width="1.0"/><line x1="245.0" y1="176.0" x2="249.6" y2="174.1" stroke="#1a1a1a" stroke-width="1.0"/><line x1="185.0" y1="172.0" x2="185.0" y2="180.0" stroke="#1a1a1a" stroke-width="0.7"/><line x1="245.0" y1="172.0" x2="245.0" y2="180.0" stroke="#1a1a1a" stroke-width="0.7"/><text x="215.0" y="172.0" font-family="Verdana, Arial, sans-serif" font-size="10" font-weight="normal" text-anchor="middle" fill="#111">24"</text><line x1="245.0" y1="176.0" x2="305.0" y2="176.0" stroke="#1a1a1a" stroke-width="0.9"/><line x1="245.0" y1="176.0" x2="240.4" y2="174.1" stroke="#1a1a1a" stroke-width="1.0"/><line x1="245.0" y1="176.0" x2="240.4" y2="177.9" stroke="#1a1a1a" stroke-width="1.0"/><line x1="305.0" y1="176.0" x2="309.6" y2="177.9" stroke="#1a1a1a" stroke-width="1.0"/><line x1="305.0" y1="176.0" x2="309.6" y2="174.1" stroke="#1a1a1a" stroke-width="1.0"/><line x1="245.0" y1="172.0" x2="245.0" y2="180.0" stroke="#1a1a1a" stroke-width="0.7"/><line x1="305.0" y1="172.0" x2="305.0" y2="180.0" stroke="#1a1a1a" stroke-width="0.7"/><text x="275.0" y="172.0" font-family="Verdana, Arial, sans-serif" font-size="10" font-weight="normal" text-anchor="middle" fill="#111">24"</text><line x1="305.0" y1="176.0" x2="335.0" y2="176.0" stroke="#1a1a1a" stroke-width="0.9"/><line x1="305.0" y1="176.0" x2="300.4" y2="174.1" stroke="#1a1a1a" stroke-width="1.0"/><line x1="305.0" y1="176.0" x2="300.4" y2="177.9" stroke="#1a1a1a" stroke-width="1.0"/><line x1="335.0" y1="176.0" x2="339.6" y2="177.9" stroke="#1a1a1a" stroke-width="1.0"/><line x1="335.0" y1="176.0" x2="339.6" y2="174.1" stroke="#1a1a1a" stroke-width="1.0"/><line x1="305.0" y1="172.0" x2="305.0" y2="180.0" stroke="#1a1a1a" stroke-width="0.7"/><line x1="335.0" y1="172.0" x2="335.0" y2="180.0" stroke="#1a1a1a" stroke-width="0.7"/><text x="320.0" y="172.0" font-family="Verdana, Arial, sans-serif" font-size="10" font-weight="normal" text-anchor="middle" fill="#111">12"</text><line x1="47.0" y1="190.0" x2="47.0" y2="670.0" stroke="#1a1a1a" stroke-width="0.9"/><line x1="47.0" y1="190.0" x2="48.9" y2="185.4" stroke="#1a1a1a" stroke-width="1.0"/><line x1="47.0" y1="190.0" x2="45.1" y2="185.4" stroke="#1a1a1a" stroke-width="1.0"/><line x1="47.0" y1="670.0" x2="45.1" y2="674.6" stroke="#1a1a1a" stroke-width="1.0"/><line x1="47.0" y1="670.0" x2="48.9" y2="674.6" stroke="#1a1a1a" stroke-width="1.0"/><line x1="42.0" y1="190.0" x2="52.0" y2="190.0" stroke="#1a1a1a" stroke-width="0.7"/><line x1="42.0" y1="670.0" x2="52.0" y2="670.0" stroke="#1a1a1a" stroke-width="0.7"/><text x="42.0" y="434.2" font-family="Verdana, Arial, sans-serif" font-size="12" font-weight="normal" text-anchor="end" fill="#111">192"</text><line x1="81.0" y1="190.0" x2="81.0" y2="220.0" stroke="#1a1a1a" stroke-width="0.9"/><line x1="81.0" y1="190.0" x2="82.9" y2="185.4" stroke="#1a1a1a" stroke-width="1.0"/><line x1="81.0" y1="190.0" x2="79.1" y2="185.4" stroke="#1a1a1a" stroke-width="1.0"/><line x1="81.0" y1="220.0" x2="79.1" y2="224.6" stroke="#1a1a1a" stroke-width="1.0"/><line x1="81.0" y1="220.0" x2="82.9" y2="224.6" stroke="#1a1a1a" stroke-width="1.0"/><line x1="77.0" y1="190.0" x2="85.0" y2="190.0" stroke="#1a1a1a" stroke-width="0.7"/><line x1="77.0" y1="220.0" x2="85.0" y2="220.0" stroke="#1a1a1a" stroke-width="0.7"/><text x="76.0" y="208.5" font-family="Verdana, Arial, sans-serif" font-size="10" font-weight="normal" text-anchor="end" fill="#111">12"</text><line x1="81.0" y1="220.0" x2="81.0" y2="280.0" stroke="#1a1a1a" stroke-width="0.9"/><line x1="81.0" y1="220.0" x2="82.9" y2="215.4" stroke="#1a1a1a" stroke-width="1.0"/><line x1="81.0" y1="220.0" x2="79.1" y2="215.4" stroke="#1a1a1a" stroke-width="1.0"/><line x1="81.0" y1="280.0" x2="79.1" y2="284.6" stroke="#1a1a1a" stroke-width="1.0"/><line x1="81.0" y1="280.0" x2="82.9" y2="284.6" stroke="#1a1a1a" stroke-width="1.0"/><line x1="77.0" y1="220.0" x2="85.0" y2="220.0" stroke="#1a1a1a" stroke-width="0.7"/><line x1="77.0" y1="280.0" x2="85.0" y2="280.0" stroke="#1a1a1a" stroke-width="0.7"/><text x="76.0" y="253.5" font-family="Verdana, Arial, sans-serif" font-size="10" font-weight="normal" text-anchor="end" fill="#111">24"</text><line x1="81.0" y1="280.0" x2="81.0" y2="340.0" stroke="#1a1a1a" stroke-width="0.9"/><line x1="81.0" y1="280.0" x2="82.9" y2="275.4" stroke="#1a1a1a" stroke-width="1.0"/><line x1="81.0" y1="280.0" x2="79.1" y2="275.4" stroke="#1a1a1a" stroke-width="1.0"/><line x1="81.0" y1="340.0" x2="79.1" y2="344.6" stroke="#1a1a1a" stroke-width="1.0"/><line x1="81.0" y1="340.0" x2="82.9" y2="344.6" stroke="#1a1a1a" stroke-width="1.0"/><line x1="77.0" y1="280.0" x2="85.0" y2="280.0" stroke="#1a1a1a" stroke-width="0.7"/><line x1="77.0" y1="340.0" x2="85.0" y2="340.0" stroke="#1a1a1a" stroke-width="0.7"/><text x="76.0" y="313.5" font-family="Verdana, Arial, sans-serif" font-size="10" font-weight="normal" text-anchor="end" fill="#111">24"</text><line x1="81.0" y1="340.0" x2="81.0" y2="400.0" stroke="#1a1a1a" stroke-width="0.9"/><line x1="81.0" y1="340.0" x2="82.9" y2="335.4" stroke="#1a1a1a" stroke-width="1.0"/><line x1="81.0" y1="340.0" x2="79.1" y2="335.4" stroke="#1a1a1a" stroke-width="1.0"/><line x1="81.0" y1="400.0" x2="79.1" y2="404.6" stroke="#1a1a1a" stroke-width="1.0"/><line x1="81.0" y1="400.0" x2="82.9" y2="404.6" stroke="#1a1a1a" stroke-width="1.0"/><line x1="77.0" y1="340.0" x2="85.0" y2="340.0" stroke="#1a1a1a" stroke-width="0.7"/><line x1="77.0" y1="400.0" x2="85.0" y2="400.0" stroke="#1a1a1a" stroke-width="0.7"/><text x="76.0" y="373.5" font-family="Verdana, Arial, sans-serif" font-size="10" font-weight="normal" text-anchor="end" fill="#111">24"</text><line x1="81.0" y1="400.0" x2="81.0" y2="460.0" stroke="#1a1a1a" stroke-width="0.9"/><line x1="81.0" y1="400.0" x2="82.9" y2="395.4" stroke="#1a1a1a" stroke-width="1.0"/><line x1="81.0" y1="400.0" x2="79.1" y2="395.4" stroke="#1a1a1a" stroke-width="1.0"/><line x1="81.0" y1="460.0" x2="79.1" y2="464.6" stroke="#1a1a1a" stroke-width="1.0"/><line x1="81.0" y1="460.0" x2="82.9" y2="464.6" stroke="#1a1a1a" stroke-width="1.0"/><line x1="77.0" y1="400.0" x2="85.0" y2="400.0" stroke="#1a1a1a" stroke-width="0.7"/><line x1="77.0" y1="460.0" x2="85.0" y2="460.0" stroke="#1a1a1a" stroke-width="0.7"/><text x="76.0" y="433.5" font-family="Verdana, Arial, sans-serif" font-size="10" font-weight="normal" text-anchor="end" fill="#111">24"</text><line x1="81.0" y1="460.0" x2="81.0" y2="520.0" stroke="#1a1a1a" stroke-width="0.9"/><line x1="81.0" y1="460.0" x2="82.9" y2="455.4" stroke="#1a1a1a" stroke-width="1.0"/><line x1="81.0" y1="460.0" x2="79.1" y2="455.4" stroke="#1a1a1a" stroke-width="1.0"/><line x1="81.0" y1="520.0" x2="79.1" y2="524.6" stroke="#1a1a1a" stroke-width="1.0"/><line x1="81.0" y1="520.0" x2="82.9" y2="524.6" stroke="#1a1a1a" stroke-width="1.0"/><line x1="77.0" y1="460.0" x2="85.0" y2="460.0" stroke="#1a1a1a" stroke-width="0.7"/><line x1="77.0" y1="520.0" x2="85.0" y2="520.0" stroke="#1a1a1a" stroke-width="0.7"/><text x="76.0" y="493.5" font-family="Verdana, Arial, sans-serif" font-size="10" font-weight="normal" text-anchor="end" fill="#111">24"</text><line x1="81.0" y1="520.0" x2="81.0" y2="580.0" stroke="#1a1a1a" stroke-width="0.9"/><line x1="81.0" y1="520.0" x2="82.9" y2="515.4" stroke="#1a1a1a" stroke-width="1.0"/><line x1="81.0" y1="520.0" x2="79.1" y2="515.4" stroke="#1a1a1a" stroke-width="1.0"/><line x1="81.0" y1="580.0" x2="79.1" y2="584.6" stroke="#1a1a1a" stroke-width="1.0"/><line x1="81.0" y1="580.0" x2="82.9" y2="584.6" stroke="#1a1a1a" stroke-width="1.0"/><line x1="77.0" y1="520.0" x2="85.0" y2="520.0" stroke="#1a1a1a" stroke-width="0.7"/><line x1="77.0" y1="580.0" x2="85.0" y2="580.0" stroke="#1a1a1a" stroke-width="0.7"/><text x="76.0" y="553.5" font-family="Verdana, Arial, sans-serif" font-size="10" font-weight="normal" text-anchor="end" fill="#111">24"</text><line x1="81.0" y1="580.0" x2="81.0" y2="640.0" stroke="#1a1a1a" stroke-width="0.9"/><line x1="81.0" y1="580.0" x2="82.9" y2="575.4" stroke="#1a1a1a" stroke-width="1.0"/><line x1="81.0" y1="580.0" x2="79.1" y2="575.4" stroke="#1a1a1a" stroke-width="1.0"/><line x1="81.0" y1="640.0" x2="79.1" y2="644.6" stroke="#1a1a1a" stroke-width="1.0"/><line x1="81.0" y1="640.0" x2="82.9" y2="644.6" stroke="#1a1a1a" stroke-width="1.0"/><line x1="77.0" y1="580.0" x2="85.0" y2="580.0" stroke="#1a1a1a" stroke-width="0.7"/><line x1="77.0" y1="640.0" x2="85.0" y2="640.0" stroke="#1a1a1a" stroke-width="0.7"/><text x="76.0" y="613.5" font-family="Verdana, Arial, sans-serif" font-size="10" font-weight="normal" text-anchor="end" fill="#111">24"</text><line x1="81.0" y1="640.0" x2="81.0" y2="670.0" stroke="#1a1a1a" stroke-width="0.9"/><line x1="81.0" y1="640.0" x2="82.9" y2="635.4" stroke="#1a1a1a" stroke-width="1.0"/><line x1="81.0" y1="640.0" x2="79.1" y2="635.4" stroke="#1a1a1a" stroke-width="1.0"/><line x1="81.0" y1="670.0" x2="79.1" y2="674.6" stroke="#1a1a1a" stroke-width="1.0"/><line x1="81.0" y1="670.0" x2="82.9" y2="674.6" stroke="#1a1a1a" stroke-width="1.0"/><line x1="77.0" y1="640.0" x2="85.0" y2="640.0" stroke="#1a1a1a" stroke-width="0.7"/><line x1="77.0" y1="670.0" x2="85.0" y2="670.0" stroke="#1a1a1a" stroke-width="0.7"/><text x="76.0" y="658.5" font-family="Verdana, Arial, sans-serif" font-size="10" font-weight="normal" text-anchor="end" fill="#111">12"</text><line x1="349.0" y1="190.0" x2="349.0" y2="220.0" stroke="#1a1a1a" stroke-width="0.9"/><line x1="349.0" y1="190.0" x2="350.9" y2="185.4" stroke="#1a1a1a" stroke-width="1.0"/><line x1="349.0" y1="190.0" x2="347.1" y2="185.4" stroke="#1a1a1a" stroke-width="1.0"/><line x1="349.0" y1="220.0" x2="347.1" y2="224.6" stroke="#1a1a1a" stroke-width="1.0"/><line x1="349.0" y1="220.0" x2="350.9" y2="224.6" stroke="#1a1a1a" stroke-width="1.0"/><line x1="345.0" y1="190.0" x2="353.0" y2="190.0" stroke="#1a1a1a" stroke-width="0.7"/><line x1="345.0" y1="220.0" x2="353.0" y2="220.0" stroke="#1a1a1a" stroke-width="0.7"/><text x="354.0" y="208.5" font-family="Verdana, Arial, sans-serif" font-size="10" font-weight="normal" text-anchor="start" fill="#111">12"</text><line x1="349.0" y1="220.0" x2="349.0" y2="280.0" stroke="#1a1a1a" stroke-width="0.9"/><line x1="349.0" y1="220.0" x2="350.9" y2="215.4" stroke="#1a1a1a" stroke-width="1.0"/><line x1="349.0" y1="220.0" x2="347.1" y2="215.4" stroke="#1a1a1a" stroke-width="1.0"/><line x1="349.0" y1="280.0" x2="347.1" y2="284.6" stroke="#1a1a1a" stroke-width="1.0"/><line x1="349.0" y1="280.0" x2="350.9" y2="284.6" stroke="#1a1a1a" stroke-width="1.0"/><line x1="345.0" y1="220.0" x2="353.0" y2="220.0" stroke="#1a1a1a" stroke-width="0.7"/><line x1="345.0" y1="280.0" x2="353.0" y2="280.0" stroke="#1a1a1a" stroke-width="0.7"/><text x="354.0" y="253.5" font-family="Verdana, Arial, sans-serif" font-size="10" font-weight="normal" text-anchor="start" fill="#111">24"</text><line x1="349.0" y1="280.0" x2="349.0" y2="340.0" stroke="#1a1a1a" stroke-width="0.9"/><line x1="349.0" y1="280.0" x2="350.9" y2="275.4" stroke="#1a1a1a" stroke-width="1.0"/><line x1="349.0" y1="280.0" x2="347.1" y2="275.4" stroke="#1a1a1a" stroke-width="1.0"/><line x1="349.0" y1="340.0" x2="347.1" y2="344.6" stroke="#1a1a1a" stroke-width="1.0"/><line x1="349.0" y1="340.0" x2="350.9" y2="344.6" stroke="#1a1a1a" stroke-width="1.0"/><line x1="345.0" y1="280.0" x2="353.0" y2="280.0" stroke="#1a1a1a" stroke-width="0.7"/><line x1="345.0" y1="340.0" x2="353.0" y2="340.0" stroke="#1a1a1a" stroke-width="0.7"/><text x="354.0" y="313.5" font-family="Verdana, Arial, sans-serif" font-size="10" font-weight="normal" text-anchor="start" fill="#111">24"</text><line x1="349.0" y1="340.0" x2="349.0" y2="400.0" stroke="#1a1a1a" stroke-width="0.9"/><line x1="349.0" y1="340.0" x2="350.9" y2="335.4" stroke="#1a1a1a" stroke-width="1.0"/><line x1="349.0" y1="340.0" x2="347.1" y2="335.4" stroke="#1a1a1a" stroke-width="1.0"/><line x1="349.0" y1="400.0" x2="347.1" y2="404.6" stroke="#1a1a1a" stroke-width="1.0"/><line x1="349.0" y1="400.0" x2="350.9" y2="404.6" stroke="#1a1a1a" stroke-width="1.0"/><line x1="345.0" y1="340.0" x2="353.0" y2="340.0" stroke="#1a1a1a" stroke-width="0.7"/><line x1="345.0" y1="400.0" x2="353.0" y2="400.0" stroke="#1a1a1a" stroke-width="0.7"/><text x="354.0" y="373.5" font-family="Verdana, Arial, sans-serif" font-size="10" font-weight="normal" text-anchor="start" fill="#111">24"</text><line x1="349.0" y1="400.0" x2="349.0" y2="460.0" stroke="#1a1a1a" stroke-width="0.9"/><line x1="349.0" y1="400.0" x2="350.9" y2="395.4" stroke="#1a1a1a" stroke-width="1.0"/><line x1="349.0" y1="400.0" x2="347.1" y2="395.4" stroke="#1a1a1a" stroke-width="1.0"/><line x1="349.0" y1="460.0" x2="347.1" y2="464.6" stroke="#1a1a1a" stroke-width="1.0"/><line x1="349.0" y1="460.0" x2="350.9" y2="464.6" stroke="#1a1a1a" stroke-width="1.0"/><line x1="345.0" y1="400.0" x2="353.0" y2="400.0" stroke="#1a1a1a" stroke-width="0.7"/><line x1="345.0" y1="460.0" x2="353.0" y2="460.0" stroke="#1a1a1a" stroke-width="0.7"/><text x="354.0" y="433.5" font-family="Verdana, Arial, sans-serif" font-size="10" font-weight="normal" text-anchor="start" fill="#111">24"</text><line x1="349.0" y1="460.0" x2="349.0" y2="520.0" stroke="#1a1a1a" stroke-width="0.9"/><line x1="349.0" y1="460.0" x2="350.9" y2="455.4" stroke="#1a1a1a" stroke-width="1.0"/><line x1="349.0" y1="460.0" x2="347.1" y2="455.4" stroke="#1a1a1a" stroke-width="1.0"/><line x1="349.0" y1="520.0" x2="347.1" y2="524.6" stroke="#1a1a1a" stroke-width="1.0"/><line x1="349.0" y1="520.0" x2="350.9" y2="524.6" stroke="#1a1a1a" stroke-width="1.0"/><line x1="345.0" y1="460.0" x2="353.0" y2="460.0" stroke="#1a1a1a" stroke-width="0.7"/><line x1="345.0" y1="520.0" x2="353.0" y2="520.0" stroke="#1a1a1a" stroke-width="0.7"/><text x="354.0" y="493.5" font-family="Verdana, Arial, sans-serif" font-size="10" font-weight="normal" text-anchor="start" fill="#111">24"</text><line x1="349.0" y1="520.0" x2="349.0" y2="580.0" stroke="#1a1a1a" stroke-width="0.9"/><line x1="349.0" y1="520.0" x2="350.9" y2="515.4" stroke="#1a1a1a" stroke-width="1.0"/><line x1="349.0" y1="520.0" x2="347.1" y2="515.4" stroke="#1a1a1a" stroke-width="1.0"/><line x1="349.0" y1="580.0" x2="347.1" y2="584.6" stroke="#1a1a1a" stroke-width="1.0"/><line x1="349.0" y1="580.0" x2="350.9" y2="584.6" stroke="#1a1a1a" stroke-width="1.0"/><line x1="345.0" y1="520.0" x2="353.0" y2="520.0" stroke="#1a1a1a" stroke-width="0.7"/><line x1="345.0" y1="580.0" x2="353.0" y2="580.0" stroke="#1a1a1a" stroke-width="0.7"/><text x="354.0" y="553.5" font-family="Verdana, Arial, sans-serif" font-size="10" font-weight="normal" text-anchor="start" fill="#111">24"</text><line x1="349.0" y1="580.0" x2="349.0" y2="640.0" stroke="#1a1a1a" stroke-width="0.9"/><line x1="349.0" y1="580.0" x2="350.9" y2="575.4" stroke="#1a1a1a" stroke-width="1.0"/><line x1="349.0" y1="580.0" x2="347.1" y2="575.4" stroke="#1a1a1a" stroke-width="1.0"/><line x1="349.0" y1="640.0" x2="347.1" y2="644.6" stroke="#1a1a1a" stroke-width="1.0"/><line x1="349.0" y1="640.0" x2="350.9" y2="644.6" stroke="#1a1a1a" stroke-width="1.0"/><line x1="345.0" y1="580.0" x2="353.0" y2="580.0" stroke="#1a1a1a" stroke-width="0.7"/><line x1="345.0" y1="640.0" x2="353.0" y2="640.0" stroke="#1a1a1a" stroke-width="0.7"/><text x="354.0" y="613.5" font-family="Verdana, Arial, sans-serif" font-size="10" font-weight="normal" text-anchor="start" fill="#111">24"</text><line x1="349.0" y1="640.0" x2="349.0" y2="670.0" stroke="#1a1a1a" stroke-width="0.9"/><line x1="349.0" y1="640.0" x2="350.9" y2="635.4" stroke="#1a1a1a" stroke-width="1.0"/><line x1="349.0" y1="640.0" x2="347.1" y2="635.4" stroke="#1a1a1a" stroke-width="1.0"/><line x1="349.0" y1="670.0" x2="347.1" y2="674.6" stroke="#1a1a1a" stroke-width="1.0"/><line x1="349.0" y1="670.0" x2="350.9" y2="674.6" stroke="#1a1a1a" stroke-width="1.0"/><line x1="345.0" y1="640.0" x2="353.0" y2="640.0" stroke="#1a1a1a" stroke-width="0.7"/><line x1="345.0" y1="670.0" x2="353.0" y2="670.0" stroke="#1a1a1a" stroke-width="0.7"/><text x="354.0" y="658.5" font-family="Verdana, Arial, sans-serif" font-size="10" font-weight="normal" text-anchor="start" fill="#111">12"</text><line x1="172.5" y1="686.0" x2="257.5" y2="686.0" stroke="#1a1a1a" stroke-width="0.9"/><line x1="172.5" y1="686.0" x2="167.9" y2="684.1" stroke="#1a1a1a" stroke-width="1.0"/><line x1="172.5" y1="686.0" x2="167.9" y2="687.9" stroke="#1a1a1a" stroke-width="1.0"/><line x1="257.5" y1="686.0" x2="262.1" y2="687.9" stroke="#1a1a1a" stroke-width="1.0"/><line x1="257.5" y1="686.0" x2="262.1" y2="684.1" stroke="#1a1a1a" stroke-width="1.0"/><line x1="172.5" y1="682.0" x2="172.5" y2="690.0" stroke="#1a1a1a" stroke-width="0.7"/><line x1="257.5" y1="682.0" x2="257.5" y2="690.0" stroke="#1a1a1a" stroke-width="0.7"/><text x="215.0" y="682.0" font-family="Verdana, Arial, sans-serif" font-size="10" font-weight="normal" text-anchor="middle" fill="#111">34"</text><line x1="172.5" y1="670.0" x2="210.5" y2="690.0" stroke="#1a1a1a" stroke-width="1.2"/><rect x="470.0" y="190.0" width="240.0" height="480.0" fill="none" stroke="#1a1a1a" stroke-width="1.4"/><rect x="475.0" y="195.0" width="230.0" height="470.0" fill="none" stroke="#1a1a1a" stroke-width="0.8"/><line x1="475.0" y1="250.0" x2="705.0" y2="250.0" stroke="#1a1a1a" stroke-width="0.8"/><line x1="475.0" y1="310.0" x2="705.0" y2="310.0" stroke="#1a1a1a" stroke-width="0.8"/><line x1="475.0" y1="370.0" x2="705.0" y2="370.0" stroke="#1a1a1a" stroke-width="0.8"/><line x1="475.0" y1="430.0" x2="705.0" y2="430.0" stroke="#1a1a1a" stroke-width="0.8"/><line x1="475.0" y1="490.0" x2="705.0" y2="490.0" stroke="#1a1a1a" stroke-width="0.8"/><line x1="475.0" y1="550.0" x2="705.0" y2="550.0" stroke="#1a1a1a" stroke-width="0.8"/><line x1="475.0" y1="610.0" x2="705.0" y2="610.0" stroke="#1a1a1a" stroke-width="0.8"/><text x="497.0" y="224.0" font-family="Verdana, Arial, sans-serif" font-size="11" font-weight="normal" text-anchor="middle" fill="#111">24"</text><text x="497.0" y="284.0" font-family="Verdana, Arial, sans-serif" font-size="11" font-weight="normal" text-anchor="middle" fill="#111">24"</text><text x="497.0" y="344.0" font-family="Verdana, Arial, sans-serif" font-size="11" font-weight="normal" text-anchor="middle" fill="#111">24"</text><text x="497.0" y="404.0" font-family="Verdana, Arial, sans-serif" font-size="11" font-weight="normal" text-anchor="middle" fill="#111">24"</text><text x="497.0" y="464.0" font-family="Verdana, Arial, sans-serif" font-size="11" font-weight="normal" text-anchor="middle" fill="#111">24"</text><text x="497.0" y="524.0" font-family="Verdana, Arial, sans-serif" font-size="11" font-weight="normal" text-anchor="middle" fill="#111">24"</text><text x="497.0" y="584.0" font-family="Verdana, Arial, sans-serif" font-size="11" font-weight="normal" text-anchor="middle" fill="#111">24"</text><text x="497.0" y="644.0" font-family="Verdana, Arial, sans-serif" font-size="11" font-weight="normal" text-anchor="middle" fill="#111">24"</text><line x1="470.0" y1="174.0" x2="710.0" y2="174.0" stroke="#1a1a1a" stroke-width="0.9"/><line x1="470.0" y1="174.0" x2="465.4" y2="172.1" stroke="#1a1a1a" stroke-width="1.0"/><line x1="470.0" y1="174.0" x2="465.4" y2="175.9" stroke="#1a1a1a" stroke-width="1.0"/><line x1="710.0" y1="174.0" x2="714.6" y2="175.9" stroke="#1a1a1a" stroke-width="1.0"/><line x1="710.0" y1="174.0" x2="714.6" y2="172.1" stroke="#1a1a1a" stroke-width="1.0"/><line x1="470.0" y1="169.0" x2="470.0" y2="179.0" stroke="#1a1a1a" stroke-width="0.7"/><line x1="710.0" y1="169.0" x2="710.0" y2="179.0" stroke="#1a1a1a" stroke-width="0.7"/><text x="590.0" y="170.0" font-family="Verdana, Arial, sans-serif" font-size="12" font-weight="normal" text-anchor="middle" fill="#111">96"</text><line x1="740.0" y1="190.0" x2="740.0" y2="670.0" stroke="#1a1a1a" stroke-width="0.9"/><line x1="740.0" y1="190.0" x2="741.9" y2="185.4" stroke="#1a1a1a" stroke-width="1.0"/><line x1="740.0" y1="190.0" x2="738.1" y2="185.4" stroke="#1a1a1a" stroke-width="1.0"/><line x1="740.0" y1="670.0" x2="738.1" y2="674.6" stroke="#1a1a1a" stroke-width="1.0"/><line x1="740.0" y1="670.0" x2="741.9" y2="674.6" stroke="#1a1a1a" stroke-width="1.0"/><line x1="735.0" y1="190.0" x2="745.0" y2="190.0" stroke="#1a1a1a" stroke-width="0.7"/><line x1="735.0" y1="670.0" x2="745.0" y2="670.0" stroke="#1a1a1a" stroke-width="0.7"/><text x="745.0" y="434.2" font-family="Verdana, Arial, sans-serif" font-size="12" font-weight="normal" text-anchor="start" fill="#111">192"</text><text x="95.0" y="716.0" font-family="Verdana, Arial, sans-serif" font-size="18" font-weight="bold" text-anchor="start" fill="#111">All Swing Door</text><rect x="125.0" y="740.0" width="240.0" height="210.0" fill="none" stroke="#1a1a1a" stroke-width="1.4"/><line x1="125.0" y1="750.0" x2="365.0" y2="750.0" stroke="#1a1a1a" stroke-width="0.8"/><line x1="125.0" y1="940.0" x2="365.0" y2="940.0" stroke="#1a1a1a" stroke-width="0.8"/><line x1="185.0" y1="750.0" x2="185.0" y2="940.0" stroke="#1a1a1a" stroke-width="0.7"/><line x1="245.0" y1="750.0" x2="245.0" y2="940.0" stroke="#1a1a1a" stroke-width="0.7"/><line x1="305.0" y1="750.0" x2="305.0" y2="940.0" stroke="#1a1a1a" stroke-width="0.7"/><rect x="160.0" y="750.0" width="85.0" height="190.0" fill="none" stroke="#1a1a1a" stroke-width="1.2"/><rect x="242.0" y="787.8" width="6.0" height="8.0" fill="#2b5fb3" stroke="#2b5fb3" stroke-width="1.0"/><rect x="347.0" y="787.8" width="6.0" height="8.0" fill="#2b5fb3" stroke="#2b5fb3" stroke-width="1.0"/><rect x="242.0" y="841.0" width="6.0" height="8.0" fill="#2b5fb3" stroke="#2b5fb3" stroke-width="1.0"/><rect x="347.0" y="841.0" width="6.0" height="8.0" fill="#2b5fb3" stroke="#2b5fb3" stroke-width="1.0"/><rect x="242.0" y="894.2" width="6.0" height="8.0" fill="#2b5fb3" stroke="#2b5fb3" stroke-width="1.0"/><rect x="347.0" y="894.2" width="6.0" height="8.0" fill="#2b5fb3" stroke="#2b5fb3" stroke-width="1.0"/><text x="383.0" y="849.0" font-family="Verdana, Arial, sans-serif" font-size="11" font-weight="normal" text-anchor="start" fill="#2b5fb3">CAM-LOCK</text><line x1="160.0" y1="768.0" x2="245.0" y2="768.0" stroke="#1a1a1a" stroke-width="0.9"/><line x1="160.0" y1="768.0" x2="155.4" y2="766.1" stroke="#1a1a1a" stroke-width="1.0"/><line x1="160.0" y1="768.0" x2="155.4" y2="769.9" stroke="#1a1a1a" stroke-width="1.0"/><line x1="245.0" y1="768.0" x2="249.6" y2="769.9" stroke="#1a1a1a" stroke-width="1.0"/><line x1="245.0" y1="768.0" x2="249.6" y2="766.1" stroke="#1a1a1a" stroke-width="1.0"/><line x1="160.0" y1="764.0" x2="160.0" y2="772.0" stroke="#1a1a1a" stroke-width="0.7"/><line x1="245.0" y1="764.0" x2="245.0" y2="772.0" stroke="#1a1a1a" stroke-width="0.7"/><text x="202.5" y="764.0" font-family="Verdana, Arial, sans-serif" font-size="10" font-weight="normal" text-anchor="middle" fill="#111">34"</text><line x1="109.0" y1="750.0" x2="109.0" y2="940.0" stroke="#1a1a1a" stroke-width="0.9"/><line x1="109.0" y1="750.0" x2="110.9" y2="745.4" stroke="#1a1a1a" stroke-width="1.0"/><line x1="109.0" y1="750.0" x2="107.1" y2="745.4" stroke="#1a1a1a" stroke-width="1.0"/><line x1="109.0" y1="940.0" x2="107.1" y2="944.6" stroke="#1a1a1a" stroke-width="1.0"/><line x1="109.0" y1="940.0" x2="110.9" y2="944.6" stroke="#1a1a1a" stroke-width="1.0"/><line x1="104.0" y1="750.0" x2="114.0" y2="750.0" stroke="#1a1a1a" stroke-width="0.7"/><line x1="104.0" y1="940.0" x2="114.0" y2="940.0" stroke="#1a1a1a" stroke-width="0.7"/><text x="104.0" y="849.2" font-family="Verdana, Arial, sans-serif" font-size="12" font-weight="normal" text-anchor="end" fill="#111">82"</text><line x1="152.0" y1="750.0" x2="152.0" y2="940.0" stroke="#1a1a1a" stroke-width="0.9"/><line x1="152.0" y1="750.0" x2="153.9" y2="745.4" stroke="#1a1a1a" stroke-width="1.0"/><line x1="152.0" y1="750.0" x2="150.1" y2="745.4" stroke="#1a1a1a" stroke-width="1.0"/><line x1="152.0" y1="940.0" x2="150.1" y2="944.6" stroke="#1a1a1a" stroke-width="1.0"/><line x1="152.0" y1="940.0" x2="153.9" y2="944.6" stroke="#1a1a1a" stroke-width="1.0"/><line x1="147.0" y1="750.0" x2="157.0" y2="750.0" stroke="#1a1a1a" stroke-width="0.7"/><line x1="147.0" y1="940.0" x2="157.0" y2="940.0" stroke="#1a1a1a" stroke-width="0.7"/><text x="147.0" y="848.5" font-family="Verdana, Arial, sans-serif" font-size="10" font-weight="normal" text-anchor="end" fill="#111">76"</text><text x="109.0" y="749.0" font-family="Verdana, Arial, sans-serif" font-size="10" font-weight="normal" text-anchor="end" fill="#111">4"</text><text x="109.0" y="949.0" font-family="Verdana, Arial, sans-serif" font-size="10" font-weight="normal" text-anchor="end" fill="#111">4"</text><text x="720.0" y="998.0" font-family="Verdana, Arial, sans-serif" font-size="11" font-weight="normal" text-anchor="end" fill="#555">Footprint 8' x 16'  (128 sq ft)  |  walls in 24" panels</text></svg>